<svg width="48" height="48" viewBox="0 0 48 48" fill="none" xmlns="http://www.w3.org/2000/svg">
<path opacity="0.4" d="M38.96 25.9H43V23.02C43 18.88 39.62 15.5 35.48 15.5H12.52C8.38 15.5 5 18.88 5 23.02V36.48C5 40.62 8.38 44 12.52 44H35.48C39.62 44 43 40.62 43 36.48V34.1H39.2C37.04 34.1 35.06 32.52 34.88 30.36C34.76 29.1 35.24 27.92 36.08 27.1C36.82 26.34 37.84 25.9 38.96 25.9ZM13.2 41.16C12.9 41.44 12.52 41.58 12.14 41.58C11.76 41.58 11.38 41.44 11.08 41.16L10.02 40.1L8.92 41.2C8.62 41.5 8.24 41.64 7.86 41.64C7.48 41.64 7.1 41.5 6.8 41.2C6.22 40.62 6.22 39.66 6.8 39.08L7.9 37.98L6.84 36.92C6.26 36.34 6.26 35.38 6.84 34.8C7.44 34.22 8.38 34.22 8.98 34.8L10.02 35.86L11.02 34.84C11.62 34.26 12.56 34.26 13.16 34.84C13.74 35.44 13.74 36.38 13.16 36.98L12.14 37.98L13.2 39.02C13.78 39.62 13.78 40.56 13.2 41.16Z" fill="#ED2739"/>
<path d="M29.7 7.90025V15.5002H12.52C8.38 15.5002 5 18.8802 5 23.0202V15.6803C5 13.3003 6.46 11.1802 8.68 10.3402L24.56 4.34019C27.04 3.42019 29.7 5.24025 29.7 7.90025Z" fill="#ED2739"/>
<path d="M45.1199 27.9403V32.0604C45.1199 33.1604 44.2399 34.0603 43.1199 34.1003H39.1999C37.0399 34.1003 35.0599 32.5204 34.8799 30.3604C34.7599 29.1004 35.2399 27.9203 36.0799 27.1003C36.8199 26.3403 37.8399 25.9004 38.9599 25.9004H43.1199C44.2399 25.9404 45.1199 26.8403 45.1199 27.9403Z" fill="#ED2739"/>
<path d="M28 25.5H14C13.18 25.5 12.5 24.82 12.5 24C12.5 23.18 13.18 22.5 14 22.5H28C28.82 22.5 29.5 23.18 29.5 24C29.5 24.82 28.82 25.5 28 25.5Z" fill="#ED2739"/>
<path d="M10 30C8.12 30 6.38 30.66 5 31.76C3.16 33.22 2 35.48 2 38C2 39.5 2.42 40.92 3.16 42.12C4.54 44.44 7.08 46 10 46C12.02 46 13.86 45.26 15.26 44C15.88 43.48 16.42 42.84 16.84 42.12C17.58 40.92 18 39.5 18 38C18 33.58 14.42 30 10 30ZM6.84 36.92C6.26 36.34 6.26 35.38 6.84 34.8C7.44 34.22 8.38 34.22 8.98 34.8L10.02 35.86L11.02 34.84C11.62 34.26 12.56 34.26 13.16 34.84C13.74 35.44 13.74 36.38 13.16 36.98L12.14 37.98L13.2 39.02C13.78 39.62 13.78 40.56 13.2 41.16C12.9 41.44 12.52 41.58 12.14 41.58C11.76 41.58 11.38 41.44 11.08 41.16L10.02 40.1L8.92 41.2C8.62 41.5 8.24 41.64 7.86 41.64C7.48 41.64 7.1 41.5 6.8 41.2C6.22 40.62 6.22 39.66 6.8 39.08L7.9 37.98L6.84 36.92Z" fill="#ED2739"/>
</svg>
