<svg width="25" height="32" viewBox="0 0 25 32" fill="none" xmlns="http://www.w3.org/2000/svg">
<g clip-path="url(#clip0_10947_2467)">
<path fill-rule="evenodd" clip-rule="evenodd" d="M17.3828 23.5074V30.9115C17.3828 31.997 18.3465 31.9478 19.3298 31.8493C19.374 31.8468 19.3813 31.837 19.3813 31.8001C19.3813 31.7779 19.4279 26.9042 19.4279 26.7836C19.7099 27.0544 21.8703 30.1903 22.3215 30.8106C23.1822 31.9871 22.8904 31.8739 24.6781 31.8739C24.9895 31.8739 25.0017 31.7878 25.0017 31.485V24.0809C25.0017 23.8102 24.9429 23.6083 24.8424 23.4631C24.504 22.9831 23.6212 23.0939 23.1503 23.1333C23.0915 23.1382 23.0106 23.1874 23.0057 23.2489C23.0057 23.8077 23.0106 27.6377 23.0057 28.4672C22.8806 28.3713 22.5447 27.9307 22.4343 27.7707C21.4681 26.3725 20.4578 24.8686 19.4377 23.5468C19.0062 22.988 18.6457 23.116 17.709 23.116C17.3902 23.116 17.3853 23.1923 17.3853 23.5049L17.3828 23.5074Z" fill="#003662"/>
<path fill-rule="evenodd" clip-rule="evenodd" d="M11.0061 31.7532V31.7434L11.0478 29.1859L13.4926 29.1613C15.7756 29.1884 16.8521 26.3109 15.7364 24.391C15.3195 23.6722 14.5986 24.0094 13.294 24.2925C12.6442 24.4353 12.1905 24.4057 12.1954 24.7331C12.7374 24.9202 13.2376 24.6027 13.7354 25.0777C14.0763 25.4026 14.2406 26.0155 14.0763 26.6309C13.755 27.8223 12.2715 27.5367 11.0478 27.5367C11.0478 24.3442 11.369 24.6962 9.88793 24.999C8.67165 25.2451 9.01005 25.218 9.01005 28.2653C9.01005 29.1514 8.98062 30.0868 9.01005 30.9655C9.04193 32.0141 9.92717 31.8689 10.8345 31.8689C10.8369 31.8689 10.8443 31.8689 10.8492 31.8689C10.9792 31.8714 11.0061 31.8492 11.0061 31.7483V31.7532Z" fill="#003662"/>
<path fill-rule="evenodd" clip-rule="evenodd" d="M2.3255 26.0347L2.39416 25.9117C2.6075 25.2618 3.61535 24.7942 4.22104 24.4274C4.55453 24.2231 6.09205 23.3517 6.2588 23.1548C4.37062 22.7438 2.659 23.0121 1.428 23.9769C0.402989 24.7818 -0.195343 26.6058 0.0547794 28.4937C0.287737 30.2414 1.29558 31.3417 2.77915 31.7872C4.15238 32.1982 6.8179 32.0259 7.76199 31.2014L7.78896 28.7916C7.78896 28.0261 7.93119 27.0882 7.17592 26.9012C6.36424 26.6993 4.8586 27.5042 3.91206 27.8562C3.65949 27.9498 3.62025 27.9128 3.63987 28.223L6.0332 28.2624L6.03565 29.5399C6.04546 30.1602 6.02339 30.074 5.36866 30.1872C4.59622 30.3201 3.69627 30.2758 3.08322 29.9288C2.01407 29.3257 1.77376 27.4353 2.3206 26.0397L2.3255 26.0347Z" fill="#003662"/>
<path fill-rule="evenodd" clip-rule="evenodd" d="M20.702 17.1713L21.597 17.2944C21.5504 17.3387 21.5897 17.4003 21.2513 17.4421C21.06 17.4667 21.0159 17.4569 20.832 17.4298L20.702 17.1713ZM6.26109 23.1527C6.09434 23.3496 4.55682 24.221 4.22332 24.4253C3.61764 24.7945 2.60979 25.2622 2.39645 25.9095L2.36212 25.9711L2.43078 25.9514C2.81332 25.8849 3.92661 25.3729 4.35819 25.1883C5.00067 24.9151 5.91778 24.4056 6.35427 24.6517C6.08698 25.0308 4.14486 25.4049 4.15221 26.2591C4.71867 26.1902 13.5245 23.421 14.3974 23.165C15.2753 22.9066 16.0747 22.6801 16.7981 22.2469C17.2886 21.954 20.0301 19.746 20.5401 19.3473C20.8982 19.0642 21.0551 18.8845 21.6534 18.7984C22.2322 18.7147 22.6711 18.7688 22.7913 18.2101C22.3572 18.3996 22.2689 18.4612 21.8938 18.1732C22.0213 17.9467 22.3376 17.8556 22.6662 17.9024C23.2057 17.9762 23.1027 18.2052 23.3626 18.3676C23.4803 17.1763 22.3033 17.2993 22.112 17.1886C21.9796 17.1098 21.8766 16.8981 21.6755 16.7677C21.3273 16.5437 20.729 16.6495 20.2827 16.6618C19.7089 16.6766 19.265 16.5732 18.7353 16.5658C18.8089 16.8292 18.9511 16.8784 19.0958 17.1369C18.9266 17.2427 18.8457 17.228 18.5882 17.2698C18.4067 17.2993 18.2032 17.3387 18.0757 17.3929C18.0267 17.7449 18.571 18.0329 18.3209 18.5522C18.137 18.4415 12.8526 11.6355 12.4774 11.1432C12.1365 10.6977 11.83 10.3383 11.4916 9.89279C10.5475 8.65467 9.83637 8.14022 8.78929 7.09656C8.58821 6.89718 8.43618 6.6978 8.23264 6.50827L4.84127 3.1976C4.44402 2.81607 4.09091 2.4887 3.69856 2.10717L2.03107 0.453065C1.81038 0.238918 1.55535 -0.0983029 1.42048 0.0272318C1.2709 0.295532 1.3273 1.77733 1.44255 2.13179C1.64363 2.75207 2.09728 3.06468 2.45285 3.41667C3.23019 4.17972 3.96339 4.88863 4.73828 5.6566C5.80989 6.7175 7.03353 7.99007 8.13456 9.01897C8.39449 9.26019 9.08846 9.8091 8.94868 10.4589C8.75496 10.3949 6.09189 7.72916 5.6505 7.32302L2.80351 4.50218C2.64167 4.35203 2.55339 4.16249 2.2812 4.16003C2.14142 4.40126 2.19292 5.76245 2.27384 6.06767C2.43078 6.66827 2.82313 6.94641 3.13946 7.26148L7.24687 11.2884C7.60979 11.638 7.88198 11.8964 8.24245 12.2976C8.52936 12.6176 9.05413 12.8958 8.95849 13.6342C8.65197 13.5604 7.84765 12.6029 7.5117 12.2853L3.87266 8.76544C3.06835 7.97038 3.06835 7.87439 3.06835 8.98943C3.06835 9.97402 3.06344 10.1857 3.80891 10.9537C4.99331 12.1746 6.09434 13.1665 7.44795 14.5302C8.27924 15.3695 8.9683 15.7412 8.97566 16.6495C8.71082 16.5634 5.73632 13.5702 5.28267 13.1468C4.84127 12.7382 4.31896 12.0318 3.99282 12.0146C3.83098 12.2976 3.71572 13.7228 4.51513 14.4908C5.51563 15.4532 6.68286 16.679 7.69071 17.6144C7.96781 17.8729 8.21057 18.1067 8.47786 18.3725C8.73779 18.631 8.99037 18.9288 8.9683 19.5048C8.6912 19.4507 8.22774 18.8599 7.93593 18.5744C7.58282 18.2298 7.26894 17.9369 6.90847 17.5972L5.41263 16.1154C5.23608 15.9505 5.08159 15.6797 4.80204 15.7166C4.65246 16.4354 4.76281 17.351 5.16496 17.7966C5.36849 18.0255 5.57938 18.2002 5.80008 18.4193L7.69807 20.3023C8.27188 20.8512 8.35771 21.0629 8.87021 21.3091C9.06393 21.4026 8.95849 21.3017 9.06148 21.4444L6.25864 23.1576L6.26109 23.1527Z" fill="#F22F3D"/>
<path fill-rule="evenodd" clip-rule="evenodd" d="M18.0492 11.1798L17.9952 11.1109C17.7426 10.7023 16.855 7.52209 16.5631 7.29071C16.2738 7.41379 15.9035 8.40329 15.8643 8.69621C15.6951 9.97125 17.6691 12.9299 16.85 13.6413L16.1929 11.9404C16.0629 11.5687 15.7539 10.4315 15.5357 10.2617C15.3101 10.3331 14.7314 11.4284 14.8294 12.1423C14.876 12.4746 15.3616 13.853 15.5283 14.0991C15.8496 14.5742 16.3032 15.1132 16.6588 15.5489L17.5146 16.6394C17.647 16.8117 17.6642 16.9101 17.8824 16.952L20.033 12.5853C20.3223 11.8887 20.1188 11.4186 19.903 10.7958L18.2306 5.93198C18.0639 5.452 17.8653 4.75048 17.6691 4.33203C17.3724 4.3788 17.4165 4.49695 17.1639 4.99663C17.0266 5.26739 16.8991 5.50615 16.8819 5.88522C16.855 6.45135 17.7304 8.72329 17.9633 9.41742C18.1252 9.8974 18.5224 10.7343 18.0492 11.1823V11.1798Z" fill="#F22F3D"/>
</g>
<defs>
<clipPath id="clip0_10947_2467">
<rect width="25" height="32" fill="white"/>
</clipPath>
</defs>
</svg>
