<svg width="20" height="20" viewBox="0 0 20 20" fill="none" xmlns="http://www.w3.org/2000/svg">
<path fill-rule="evenodd" clip-rule="evenodd" d="M16.341 16.3859C16.8672 15.5832 17.0634 15.1729 17.4648 14.2721C14.5037 13.1483 14.031 8.92952 16.9564 7.31517C16.0645 6.19137 14.8069 5.54028 13.6207 5.54028C12.7644 5.54028 12.1758 5.76327 11.6496 5.96841C11.2036 6.13787 10.8023 6.28948 10.3028 6.28948C9.76764 6.28948 9.29493 6.12003 8.79546 5.94165C8.2514 5.74543 7.68057 5.54028 6.96705 5.54028C5.6381 5.54028 4.21998 6.35192 3.31915 7.7433C2.05264 9.70549 2.27562 13.3801 4.31809 16.5197C5.04945 17.6435 6.03055 18.9011 7.30598 18.9189C7.84112 18.9278 8.18896 18.7673 8.57248 18.5978C9.00952 18.4016 9.48222 18.1875 10.3117 18.1875C11.1412 18.1786 11.605 18.4016 12.042 18.5978C12.4166 18.7673 12.7555 18.9278 13.2818 18.9189C14.575 18.9011 15.6096 17.5097 16.341 16.3859Z" fill="white"/>
<path fill-rule="evenodd" clip-rule="evenodd" d="M13.4334 1.08081C13.5761 2.06191 13.1747 3.0341 12.6485 3.71195C12.0866 4.44331 11.1055 5.01412 10.1601 4.97844C9.99062 4.03302 10.4277 3.06084 10.9628 2.40974C11.5604 1.69622 12.5682 1.14324 13.4334 1.08081Z" fill="white"/>
</svg>
