<svg width="24" height="24" viewBox="0 0 24 24" fill="none" xmlns="http://www.w3.org/2000/svg">
<path d="M18.1666 14.3797C17.4949 14.2352 16.9635 14.5471 16.493 14.8194C16.0111 15.1001 15.0949 15.8434 14.5697 15.6531C11.8808 14.546 9.35189 12.1925 8.25714 9.49286C8.0642 8.95647 8.804 8.0344 9.08259 7.54686C9.35292 7.07492 9.65833 6.53852 9.51904 5.86178C9.39316 5.25366 7.76497 3.18188 7.18923 2.61533C6.80952 2.2411 6.42053 2.03527 6.02123 2.00201C4.51995 1.93756 2.84327 3.94073 2.54921 4.41996C1.8125 5.44181 1.81663 6.80152 2.56159 8.45021C4.35693 12.8786 11.1472 19.5618 15.5922 21.4246C16.4125 21.8082 17.1626 22.0005 17.8364 22.0005C18.4957 22.0005 19.0828 21.8165 19.5874 21.4516C19.9681 21.2323 22.0534 19.4724 21.9987 17.9307C21.9657 17.5378 21.7604 17.1448 21.391 16.7644C20.8286 16.1833 18.7702 14.5065 18.1666 14.3797" fill="black"/>
</svg>
