<svg width="25" height="25" viewBox="0 0 25 25" fill="none" xmlns="http://www.w3.org/2000/svg">
<path d="M3.09379 9.40445L20.9177 9.40578" stroke="black" stroke-width="1.8" stroke-linecap="round" stroke-linejoin="round"/>
<path d="M16.443 13.3107L16.4522 13.3107" stroke="black" stroke-width="1.8" stroke-linecap="round" stroke-linejoin="round"/>
<path d="M12.0055 13.3107L12.0147 13.3107" stroke="black" stroke-width="1.8" stroke-linecap="round" stroke-linejoin="round"/>
<path d="M7.55822 13.3098L7.56748 13.3098" stroke="black" stroke-width="1.8" stroke-linecap="round" stroke-linejoin="round"/>
<path d="M16.443 17.1975L16.4522 17.1975" stroke="black" stroke-width="1.8" stroke-linecap="round" stroke-linejoin="round"/>
<path d="M12.0055 17.1965L12.0147 17.1965" stroke="black" stroke-width="1.8" stroke-linecap="round" stroke-linejoin="round"/>
<path d="M7.55822 17.1965L7.56748 17.1965" stroke="black" stroke-width="1.8" stroke-linecap="round" stroke-linejoin="round"/>
<path d="M16.0433 2.00101L16.0435 5.29179" stroke="black" stroke-width="1.8" stroke-linecap="round" stroke-linejoin="round"/>
<path d="M7.96515 2.00003L7.96541 5.29081" stroke="black" stroke-width="1.8" stroke-linecap="round" stroke-linejoin="round"/>
<path fill-rule="evenodd" clip-rule="evenodd" d="M16.2383 3.58009L7.77096 3.57946C4.83427 3.57924 3.00013 5.21504 3.00036 8.22213L3.00108 17.2718C3.00132 20.3261 4.83572 22 7.77241 22.0003L16.2304 22.0009C19.1764 22.0011 21.0013 20.3559 21.001 17.3488L21.0003 8.22347C21.0094 5.21638 19.1842 3.58031 16.2383 3.58009Z" stroke="black" stroke-width="1.5" stroke-linecap="round" stroke-linejoin="round"/>
</svg>
