<svg width="24" height="24" viewBox="0 0 24 24" fill="none" xmlns="http://www.w3.org/2000/svg">
<circle cx="12" cy="12" r="12" fill="white"/>
<g clip-path="url(#clip0_5988_2025)">
<path d="M20.8244 12.2073C20.8244 11.5955 20.7748 10.9804 20.669 10.3786H12.1799V13.8443H17.0412C16.8395 14.9621 16.1913 15.9509 15.2422 16.5792V18.828H18.1425C19.8456 17.2604 20.8244 14.9455 20.8244 12.2073Z" fill="#4285F4"/>
<path d="M12.18 21.0006C14.6073 21.0006 16.6543 20.2036 18.1458 18.8279L15.2455 16.5792C14.4386 17.1281 13.3969 17.439 12.1833 17.439C9.83529 17.439 7.84448 15.8549 7.13016 13.7252H4.13733V16.0434C5.66516 19.0826 8.77705 21.0006 12.18 21.0006V21.0006Z" fill="#34A853"/>
<path d="M7.12696 13.7252C6.74996 12.6074 6.74996 11.397 7.12696 10.2793V7.96107H4.13743C2.86093 10.5042 2.86093 13.5003 4.13743 16.0434L7.12696 13.7252V13.7252Z" fill="#FBBC04"/>
<path d="M12.18 6.56224C13.4631 6.5424 14.7032 7.02522 15.6325 7.9115L18.202 5.34196C16.575 3.81413 14.4155 2.97415 12.18 3.00061C8.77705 3.00061 5.66516 4.91867 4.13733 7.96111L7.12686 10.2793C7.83786 8.1463 9.83198 6.56224 12.18 6.56224V6.56224Z" fill="#EA4335"/>
</g>
<defs>
<clipPath id="clip0_5988_2025">
<rect width="18" height="18" fill="white" transform="translate(3 3)"/>
</clipPath>
</defs>
</svg>
