<svg width="24" height="24" viewBox="0 0 24 24" fill="none" xmlns="http://www.w3.org/2000/svg">
<path fill-rule="evenodd" clip-rule="evenodd" d="M12 2.75024C17.109 2.75024 21.25 6.89224 21.25 12.0002C21.25 17.1082 17.109 21.2502 12 21.2502C6.892 21.2502 2.75 17.1082 2.75 12.0002C2.75 6.89224 6.892 2.75024 12 2.75024Z" stroke="#020202" stroke-width="1.5" stroke-linecap="round" stroke-linejoin="round"/>
<path d="M11.0508 13.4922C11.0508 12.9727 11.1152 12.5586 11.2441 12.25C11.373 11.9414 11.627 11.6035 12.0059 11.2363C12.3887 10.8652 12.6309 10.6016 12.7324 10.4453C12.8887 10.207 12.9668 9.94922 12.9668 9.67188C12.9668 9.30469 12.875 9.02539 12.6914 8.83398C12.5117 8.63867 12.2461 8.54102 11.8945 8.54102C11.5586 8.54102 11.2871 8.63672 11.0801 8.82812C10.877 9.01562 10.7754 9.27148 10.7754 9.5957H9.35156C9.35938 8.9043 9.59375 8.35742 10.0547 7.95508C10.5195 7.55273 11.1328 7.35156 11.8945 7.35156C12.6797 7.35156 13.291 7.55078 13.7285 7.94922C14.1699 8.34766 14.3906 8.9043 14.3906 9.61914C14.3906 10.2559 14.0938 10.8828 13.5 11.5L12.7793 12.209C12.5215 12.502 12.3887 12.9297 12.3809 13.4922H11.0508ZM10.9512 15.3145C10.9512 15.084 11.0234 14.8984 11.168 14.7578C11.3125 14.6133 11.5078 14.541 11.7539 14.541C12.0039 14.541 12.2012 14.6152 12.3457 14.7637C12.4902 14.9082 12.5625 15.0918 12.5625 15.3145C12.5625 15.5293 12.4922 15.709 12.3516 15.8535C12.2109 15.998 12.0117 16.0703 11.7539 16.0703C11.4961 16.0703 11.2969 15.998 11.1562 15.8535C11.0195 15.709 10.9512 15.5293 10.9512 15.3145Z" fill="#020202"/>
</svg>
