<svg width="24" height="24" viewBox="0 0 24 24" fill="none" xmlns="http://www.w3.org/2000/svg">
<path fill-rule="evenodd" clip-rule="evenodd" d="M9.87749 15.2063C6.03349 15.2063 2.75049 15.7873 2.75049 18.1153C2.75049 20.4423 6.01249 21.0453 9.87749 21.0453C13.7215 21.0453 17.0045 20.4633 17.0045 18.1363C17.0045 15.8093 13.7425 15.2063 9.87749 15.2063Z" stroke="#200E32" stroke-width="1.5" stroke-linecap="round" stroke-linejoin="round"/>
<path fill-rule="evenodd" clip-rule="evenodd" d="M9.87757 11.886C12.4136 11.886 14.4456 9.853 14.4456 7.318C14.4456 4.782 12.4136 2.75 9.87757 2.75C7.34257 2.75 5.30957 4.782 5.30957 7.318C5.30957 9.853 7.34257 11.886 9.87757 11.886Z" stroke="#200E32" stroke-width="1.5" stroke-linecap="round" stroke-linejoin="round"/>
<path d="M19.2041 8.66919V12.6792" stroke="#200E32" stroke-width="1.5" stroke-linecap="round" stroke-linejoin="round"/>
<path d="M21.2502 10.6741H17.1602" stroke="#200E32" stroke-width="1.5" stroke-linecap="round" stroke-linejoin="round"/>
</svg>
