<svg width="24" height="24" viewBox="0 0 24 24" fill="none" xmlns="http://www.w3.org/2000/svg">
<path opacity="0.2" d="M12 2C17.515 2 22 6.486 22 12C22 17.514 17.515 22 12 22C6.486 22 2 17.514 2 12C2 6.486 6.486 2 12 2" fill="#A7A7A7"/>
<path d="M10.558 7.77893C10.749 7.77893 10.941 7.85193 11.087 7.99793L14.574 11.4679C14.715 11.6089 14.794 11.7999 14.794 11.9999C14.794 12.1989 14.715 12.3899 14.574 12.5309L11.087 16.0029C10.794 16.2949 10.32 16.2949 10.027 16.0009C9.73497 15.7069 9.73597 15.2319 10.029 14.9399L12.982 11.9999L10.029 9.05993C9.73597 8.76793 9.73497 8.29393 10.027 7.99993C10.173 7.85193 10.366 7.77893 10.558 7.77893" fill="#A7A7A7"/>
</svg>
