<svg width="62" height="52" viewBox="0 0 62 52" fill="none" xmlns="http://www.w3.org/2000/svg">
<g clip-path="url(#clip0_4808_36156)">
<path d="M52.7595 16.2065C53.0024 16.0589 53.2639 15.9447 53.537 15.8671L53.697 15.092L54.9965 15.0696L55.18 15.8371C55.4557 15.9054 55.721 16.0107 55.9687 16.1503L56.6259 15.716L57.5608 16.6246L57.164 17.301C57.3102 17.5458 57.4236 17.8089 57.5013 18.0835L58.2701 18.2445L58.2937 19.5524L57.5298 19.7408C57.4624 20.0183 57.3582 20.2852 57.2198 20.5346L57.6501 21.196L56.7474 22.137L56.0765 21.7264C55.8335 21.874 55.572 21.9886 55.2991 22.0671L55.1391 22.8409L53.8396 22.8646L53.6523 22.0958C53.3767 22.028 53.1114 21.9231 52.8637 21.7838L52.204 22.2144L51.2691 21.3058L51.6758 20.6294C51.5293 20.3853 51.4159 20.1225 51.3385 19.8482L50.5685 19.6872L50.5461 18.378L51.31 18.1908C51.3774 17.9134 51.4816 17.6464 51.62 17.3971L51.1897 16.7357L52.0924 15.7947L52.7633 16.204L52.7595 16.2065ZM53.4527 17.9537C53.2609 18.1534 53.1323 18.4059 53.0832 18.6792C53.034 18.9525 53.0665 19.2344 53.1765 19.4891C53.2866 19.7438 53.4692 19.9599 53.7013 20.1102C53.9334 20.2604 54.2045 20.338 54.4804 20.3331C54.7564 20.3282 55.0246 20.2411 55.2513 20.0827C55.478 19.9243 55.653 19.7018 55.754 19.4434C55.8551 19.1849 55.8777 18.9021 55.819 18.6307C55.7603 18.3593 55.6229 18.1116 55.4243 17.9188C55.1587 17.6601 54.8019 17.518 54.4324 17.5236C54.0628 17.5292 53.7105 17.6821 53.4527 17.9487V17.9537Z" fill="#EBEBEB"/>
<path d="M7.83185 29.0209C8.12484 28.8431 8.4401 28.7054 8.76929 28.6116L8.96273 27.6781L10.5288 27.6506L10.7545 28.5791C11.0868 28.6606 11.4067 28.7865 11.7056 28.9535L12.498 28.4319L13.6251 29.5276L13.1291 30.3413C13.3062 30.6361 13.4434 30.9534 13.5371 31.2848L14.4646 31.4795L14.4919 33.057L13.5718 33.2841C13.4907 33.618 13.3655 33.9395 13.1998 34.2401L13.7194 35.0375L12.6306 36.1732L11.8209 35.674C11.5278 35.8516 11.2126 35.9892 10.8835 36.0834L10.69 37.0169L9.12393 37.0443L8.89825 36.1183C8.56602 36.0369 8.24614 35.9109 7.94717 35.7439L7.15481 36.2668L6.02765 35.1711L6.52365 34.3561C6.34634 34.0614 6.20913 33.7441 6.11569 33.4127L5.18817 33.2192L5.16089 31.6417L6.07601 31.4159C6.15749 31.0817 6.28258 30.7598 6.44801 30.4586L5.92845 29.6624L7.01717 28.5267L7.82689 29.0259L7.83185 29.0209ZM8.66761 31.1226C8.43711 31.3639 8.28289 31.6685 8.22444 31.9981C8.166 32.3276 8.20596 32.6671 8.33927 32.9738C8.47259 33.2804 8.69326 33.5404 8.97339 33.7208C9.25352 33.9013 9.58053 33.994 9.91304 33.9874C10.2456 33.9808 10.5686 33.875 10.8415 33.6836C11.1143 33.4921 11.3245 33.2235 11.4457 32.9118C11.5668 32.6001 11.5934 32.2592 11.522 31.9323C11.4506 31.6053 11.2845 31.3071 11.0447 31.0751C10.7232 30.7642 10.2922 30.5946 9.84639 30.6035C9.40062 30.6124 8.97662 30.7991 8.66761 31.1226V31.1226Z" fill="#EBEBEB"/>
<path d="M18.1811 5.84336L3.75085 8.4696L5.82254 20.0001L20.2527 17.3738L18.1811 5.84336Z" fill="white"/>
<path d="M18.1808 5.84324L3.75064 8.46948L4.29278 11.4869L18.723 8.86064L18.1808 5.84324Z" fill="#EBEBEB"/>
<path d="M7.44001 13.5819C7.42411 13.5308 7.41168 13.4787 7.40281 13.4259C7.37925 13.3161 7.35073 13.1763 7.31601 13.0016C7.24285 12.6384 7.14117 12.128 7.02709 11.5127L7.07297 11.5452L5.01085 11.9196C5.00341 11.9321 5.08153 11.8185 5.04805 11.8672V11.8834V11.9009L5.05425 11.9358L5.06665 12.007L5.09269 12.148C5.10881 12.2416 5.12617 12.3339 5.14229 12.4263L5.23777 12.9629C5.29853 13.3111 5.36177 13.6406 5.40889 13.9438L5.36301 13.9114C5.97433 13.8041 6.48645 13.7192 6.85101 13.6618L7.27633 13.5957C7.32876 13.5856 7.38177 13.579 7.43505 13.5757C7.38995 13.5917 7.34345 13.6034 7.29617 13.6106L6.88325 13.6967C6.52489 13.7691 6.00533 13.8727 5.37789 13.9913L5.33945 13.9988L5.33201 13.9588C5.27621 13.6556 5.21545 13.3273 5.15097 12.9804C5.11997 12.8057 5.08773 12.626 5.05425 12.4438C5.03689 12.3514 5.02077 12.259 5.00341 12.1654L4.97861 12.0244L4.96497 11.9545V11.9183V11.9009V11.8921V11.8846C4.93273 11.9321 5.00961 11.8185 5.00217 11.831L7.06677 11.4566L7.10645 11.4491V11.489C7.21681 12.1205 7.30113 12.6472 7.35445 13.0103C7.38049 13.1813 7.40281 13.3198 7.41893 13.4297C7.43009 13.4798 7.43714 13.5307 7.44001 13.5819V13.5819Z" fill="#E0E0E0"/>
<path d="M10.1445 13.0902C10.1286 13.0395 10.1162 12.9878 10.1073 12.9355C10.0849 12.8244 10.0552 12.6859 10.0205 12.5099C9.9473 12.1467 9.84686 11.6363 9.73278 11.021L9.77866 11.0535L7.71654 11.4354C7.70786 11.4466 7.78598 11.333 7.7525 11.3817V11.3979V11.4154L7.75994 11.4503L7.77234 11.5215L7.79714 11.6625C7.8145 11.7561 7.83062 11.8485 7.84674 11.9408L7.94222 12.4774C8.00298 12.8256 8.06622 13.1551 8.11334 13.4584L8.06746 13.4259C8.67878 13.3186 9.1909 13.235 9.55546 13.1763L9.98202 13.1089C10.034 13.0989 10.0866 13.0923 10.1395 13.089C10.0945 13.1052 10.0479 13.1169 10.0006 13.1239L9.5877 13.21C9.22934 13.2824 8.70978 13.386 8.08358 13.5046L8.0439 13.512L8.03646 13.4721C7.98066 13.1688 7.9199 12.8406 7.85666 12.4937C7.82442 12.319 7.79218 12.1392 7.7587 11.957C7.74258 11.8647 7.72522 11.7723 7.7091 11.6787L7.68802 11.539L7.67562 11.4691V11.4329V11.4154V11.3992C7.64214 11.4466 7.72026 11.333 7.71282 11.3455L9.77618 10.9711L9.81586 10.9636L9.8233 11.0036C9.93242 11.635 10.018 12.1617 10.0713 12.5249C10.0986 12.6958 10.1197 12.8344 10.137 12.9442C10.1439 12.9925 10.1464 13.0414 10.1445 13.0902Z" fill="#E0E0E0"/>
<path d="M12.8452 12.6048C12.8301 12.5539 12.8177 12.5022 12.808 12.45C12.7856 12.3389 12.7571 12.2004 12.7212 12.0244C12.6492 11.6613 12.5476 11.1508 12.4335 10.5356L12.4794 10.568L10.416 10.9437C10.4073 10.9549 10.4854 10.8413 10.4532 10.89V10.9062V10.9237V10.9599L10.4656 11.0298L10.4916 11.1708C10.5078 11.2644 10.5239 11.3568 10.5412 11.4491C10.5735 11.6313 10.6045 11.811 10.6355 11.9857C10.6975 12.3339 10.7595 12.6634 10.8078 12.9667L10.762 12.9342C11.372 12.8269 11.878 12.7433 12.25 12.6846L12.6753 12.6172C12.7273 12.6073 12.7799 12.6007 12.8328 12.5973C12.7881 12.6134 12.742 12.6251 12.6951 12.6322L12.2822 12.7183C11.9226 12.7907 11.4043 12.8943 10.7768 13.0129L10.7384 13.0203L10.731 12.9804C10.6752 12.6771 10.6144 12.3489 10.5499 12.002C10.5189 11.8273 10.4854 11.6475 10.452 11.4653C10.4358 11.373 10.4197 11.2806 10.4024 11.187L10.3763 11.046L10.3639 10.9761L10.3577 10.9399V10.9225V10.9075C10.3242 10.9549 10.4024 10.8413 10.3949 10.8538L12.4595 10.4794L12.498 10.4719L12.5054 10.5119C12.6145 11.1433 12.7001 11.67 12.7534 12.0332C12.7794 12.2041 12.8018 12.3427 12.8179 12.4525C12.8318 12.5023 12.8409 12.5532 12.8452 12.6048V12.6048Z" fill="#E0E0E0"/>
<path d="M15.5471 12.1056C15.5311 12.0549 15.5187 12.0032 15.5099 11.9508C15.4876 11.8397 15.4579 11.7012 15.4231 11.5252C15.35 11.1621 15.2483 10.6516 15.1342 10.0364L15.1813 10.0688L13.118 10.4507L13.1552 10.3971V10.4045V10.4133V10.4308V10.4669L13.1688 10.5368L13.1936 10.6779C13.2097 10.7715 13.2271 10.8638 13.2432 10.9562C13.2755 11.1396 13.3077 11.3181 13.3387 11.4928C13.3995 11.841 13.4627 12.1705 13.5098 12.4737L13.4639 12.4413C14.0753 12.334 14.5874 12.2503 14.9519 12.1917L15.3773 12.1243C15.4777 12.1093 15.5323 12.1031 15.536 12.1043C15.4909 12.1206 15.4444 12.1323 15.3971 12.1393L14.9842 12.2254C14.6258 12.2978 14.1063 12.4013 13.4788 12.5199L13.4404 12.5274L13.4329 12.4875C13.3771 12.1854 13.3164 11.856 13.2531 11.509C13.2209 11.3343 13.1887 11.1546 13.1552 10.9724C13.1378 10.88 13.1217 10.7877 13.1043 10.6941L13.0795 10.5543L13.0671 10.4832L13.0597 10.447V10.4295V10.4158C13.0275 10.4632 13.1056 10.3509 13.0969 10.3621L15.1615 9.98771L15.2012 9.98022L15.2074 10.0202C15.3177 10.6516 15.4033 11.1783 15.4554 11.5415C15.4827 11.7124 15.5037 11.851 15.5211 11.9608C15.5342 12.0082 15.5429 12.0566 15.5471 12.1056Z" fill="#E0E0E0"/>
<path d="M18.2478 11.6163C18.2321 11.5652 18.2197 11.5131 18.2106 11.4603C18.1883 11.3493 18.1598 11.2107 18.1238 11.036C18.0507 10.6716 17.9502 10.1624 17.8362 9.54591L17.882 9.57835L15.8199 9.96024C15.8112 9.97147 15.8894 9.85915 15.8571 9.90658V9.9228V9.94027V9.97647L15.8695 10.0464L15.8943 10.1874C15.9117 10.281 15.9278 10.3733 15.9439 10.4657C15.9774 10.6491 16.0084 10.8276 16.0394 11.0023C16.1002 11.3505 16.1634 11.68 16.2118 11.9832L16.1646 11.9508C16.776 11.8435 17.2881 11.7599 17.6526 11.7012L18.078 11.6338C18.1299 11.6238 18.1826 11.6175 18.2354 11.6151C18.1902 11.6304 18.1437 11.6417 18.0966 11.6488L17.6836 11.7349C17.3253 11.8073 16.8057 11.9109 16.1795 12.0294L16.1398 12.0369V11.997C16.084 11.695 16.0233 11.3655 15.9588 11.0185C15.9266 10.8438 15.8943 10.6654 15.8608 10.4819C15.8447 10.3896 15.8274 10.2972 15.8112 10.2036L15.7852 10.0638L15.7728 9.99269V9.9565V9.93903V9.9253L15.81 9.87163L17.8746 9.49723L17.913 9.48975L17.9205 9.52968C18.0296 10.1612 18.1152 10.6878 18.1685 11.051C18.1945 11.222 18.2156 11.3617 18.233 11.4703C18.2423 11.5184 18.2473 11.5673 18.2478 11.6163V11.6163Z" fill="#E0E0E0"/>
<path d="M7.92362 16.2527C7.9078 16.202 7.89537 16.1503 7.88642 16.0979C7.86286 15.9869 7.83434 15.8483 7.79962 15.6724C7.72646 15.3092 7.62478 14.7988 7.5107 14.1835L7.55658 14.216L5.49446 14.6016L5.53166 14.5479V14.5554V14.5641V14.5816L5.53786 14.6166L5.55026 14.6877L5.58002 14.8262C5.59614 14.9198 5.6135 15.0122 5.62962 15.1045L5.7251 15.6412C5.78586 15.9894 5.8491 16.3188 5.89622 16.6221L5.85034 16.5896C6.46166 16.4823 6.97378 16.3975 7.33834 16.34L7.76366 16.2727C7.81611 16.2627 7.86912 16.256 7.92238 16.2527C7.87728 16.2687 7.83078 16.2804 7.7835 16.2876L7.37058 16.3737C7.01222 16.4461 6.49266 16.5497 5.86522 16.6683L5.82678 16.6758L5.81934 16.6358C5.76354 16.3326 5.70278 16.0043 5.6383 15.6574C5.6073 15.4827 5.57506 15.303 5.54158 15.1208C5.52422 15.0284 5.5081 14.9361 5.49074 14.8425L5.46594 14.7014L5.4523 14.6315V14.5953V14.5779V14.5691V14.5617C5.42006 14.6091 5.49694 14.4955 5.4895 14.508L7.5541 14.1336L7.59378 14.1261L7.59998 14.166C7.71034 14.7975 7.79466 15.3242 7.84798 15.6873C7.87402 15.8583 7.89634 15.9968 7.91246 16.1067C7.91997 16.155 7.9237 16.2038 7.92362 16.2527V16.2527Z" fill="#E0E0E0"/>
<path d="M10.6243 15.761C10.6085 15.7103 10.5961 15.6586 10.5871 15.6062C10.5648 15.4951 10.535 15.3566 10.5003 15.1806C10.4272 14.8175 10.3267 14.307 10.2126 13.6918L10.2585 13.7242L8.1964 14.1024C8.18772 14.1136 8.26584 14 8.23236 14.0487V14.0649V14.0824L8.2398 14.1173L8.2522 14.1885L8.277 14.3295C8.29436 14.4231 8.31048 14.5155 8.3266 14.6078L8.42208 15.1445C8.48284 15.4926 8.54608 15.8221 8.5932 16.1254L8.556 16.0992C9.16732 15.9918 9.67944 15.9082 10.044 15.8496L10.4706 15.7822C10.5226 15.7722 10.5752 15.7655 10.628 15.7622C10.583 15.7785 10.5365 15.7902 10.4892 15.7972L10.0762 15.8833C9.71788 15.9557 9.19832 16.0592 8.57212 16.1778L8.53244 16.1853L8.525 16.1453C8.4692 15.8421 8.40968 15.5139 8.3452 15.1669C8.31296 14.9922 8.28072 14.8125 8.24724 14.6303C8.23112 14.5379 8.21376 14.4456 8.19764 14.352L8.1716 14.2109L8.1592 14.1411V14.1049V14.0874V14.0712C8.12572 14.1186 8.20384 14.005 8.1964 14.0175L10.2598 13.6431L10.2994 13.6356L10.3069 13.6756C10.416 14.307 10.5016 14.8337 10.5549 15.1969C10.5822 15.3678 10.6032 15.5064 10.6206 15.6162C10.6262 15.6642 10.6274 15.7127 10.6243 15.761V15.761Z" fill="#E0E0E0"/>
<path d="M13.3251 15.2693C13.3098 15.2185 13.2973 15.1668 13.2879 15.1146C13.2655 15.0035 13.237 14.865 13.2011 14.689C13.1291 14.3258 13.0275 13.8154 12.9134 13.2001L12.9593 13.2326L10.8971 13.6145C10.8885 13.6257 10.9666 13.5121 10.9343 13.5608V13.577V13.5945V13.6307L10.9467 13.7006L10.9728 13.8416C10.9889 13.9352 11.005 14.0276 11.0224 14.1199C11.0546 14.3034 11.0856 14.4818 11.1166 14.6566C11.1786 15.0047 11.2406 15.3342 11.289 15.6375L11.2431 15.605C11.8532 15.4977 12.3591 15.4141 12.7311 15.3554L13.1564 15.288C13.2556 15.2731 13.3114 15.2668 13.3139 15.2681C13.2693 15.2842 13.2232 15.2959 13.1763 15.303L12.7633 15.3891C12.4037 15.4615 11.8854 15.5651 11.258 15.6837L11.2195 15.6911L11.2121 15.6512C11.1563 15.3479 11.0955 15.0197 11.0311 14.6728C11.0001 14.4981 10.9666 14.3183 10.9331 14.1361C10.917 14.0438 10.9009 13.9514 10.8835 13.8578L10.8587 13.7181L10.8451 13.6469V13.6107V13.5933V13.577C10.8116 13.6245 10.8897 13.5109 10.8823 13.5234L12.9469 13.149L12.9853 13.1415L12.9927 13.1814C13.1019 13.8129 13.1874 14.3396 13.2407 14.7027C13.2668 14.8737 13.2891 15.0122 13.3052 15.1221C13.3163 15.1704 13.323 15.2197 13.3251 15.2693V15.2693Z" fill="#E0E0E0"/>
<path d="M16.027 14.7788C16.0113 14.7277 15.9989 14.6756 15.9898 14.6228C15.9675 14.5117 15.9377 14.3732 15.903 14.1985C15.8299 13.8341 15.7282 13.3249 15.6141 12.7084L15.6612 12.7408L13.5979 13.1227L13.6351 13.0691V13.0765V13.0853V13.1027V13.1389L13.6487 13.2088L13.6735 13.3499C13.6896 13.4435 13.707 13.5358 13.7231 13.6282C13.7553 13.8116 13.7876 13.9901 13.8186 14.1648C13.8793 14.513 13.9364 14.8425 13.9897 15.1457L13.9438 15.1133C14.5551 15.006 15.0673 14.9223 15.4318 14.8637L15.8571 14.7963C15.9095 14.7863 15.9626 14.78 16.0159 14.7776C15.9704 14.7921 15.924 14.8033 15.877 14.8113L15.4641 14.8974C15.1057 14.9698 14.5861 15.0733 13.9587 15.1919L13.9203 15.1994L13.9128 15.1595C13.857 14.8574 13.7963 14.528 13.733 14.181C13.7008 14.0063 13.6685 13.8266 13.6351 13.6444C13.6177 13.552 13.6016 13.4597 13.5842 13.3661L13.5594 13.2263L13.547 13.1552L13.5396 13.119V13.1015V13.0878C13.5073 13.1352 13.5855 13.0229 13.5768 13.0341L15.6414 12.6597L15.6811 12.6522V12.6922C15.7914 13.3236 15.877 13.8503 15.9291 14.2135C15.9563 14.3844 15.9774 14.523 15.9948 14.6328C16.01 14.6803 16.0208 14.7292 16.027 14.7788V14.7788Z" fill="#E0E0E0"/>
<path d="M18.724 14.2871C18.7083 14.236 18.6959 14.1839 18.6868 14.1311C18.6645 14.02 18.636 13.8815 18.6 13.7068C18.5268 13.3424 18.4264 12.8332 18.3123 12.2167L18.3582 12.2491L16.2961 12.631C16.2874 12.6423 16.3655 12.5299 16.3333 12.5774V12.5936V12.6111V12.6472L16.3457 12.7171L16.3705 12.8582C16.3878 12.9518 16.404 13.0441 16.4201 13.1365C16.4536 13.3199 16.4846 13.4984 16.5156 13.6731C16.5763 14.0213 16.6396 14.3508 16.6879 14.654L16.6408 14.6216C17.2521 14.5143 17.7642 14.4306 18.1288 14.372L18.5541 14.3046C18.6061 14.2945 18.6587 14.2883 18.7116 14.2859C18.6664 14.3012 18.6199 14.3124 18.5727 14.3196L18.1598 14.4057C17.8014 14.4781 17.2819 14.5816 16.6557 14.7002L16.616 14.7077V14.6678C16.5602 14.3657 16.4994 14.0363 16.435 13.6893C16.4027 13.5146 16.3705 13.3361 16.337 13.1527C16.3209 13.0603 16.3035 12.968 16.2874 12.8744L16.2614 12.7346L16.249 12.6635L16.2428 12.6273V12.6098V12.5961L16.28 12.5424L18.3446 12.168L18.383 12.1605L18.3904 12.2005C18.4996 12.8319 18.5851 13.3586 18.6384 13.7218C18.6645 13.8927 18.6856 14.0325 18.7029 14.1411C18.7144 14.189 18.7214 14.2379 18.724 14.2871V14.2871Z" fill="#E0E0E0"/>
<path d="M7.99731 16.6679L5.93393 17.0435L6.30705 19.1201L8.37042 18.7446L7.99731 16.6679Z" fill="#E0E0E0"/>
<path d="M11.072 18.2545C11.0566 18.2025 11.0446 18.1496 11.036 18.096C11.0137 17.985 10.9852 17.8464 10.9492 17.6717C10.876 17.3073 10.7756 16.7981 10.6615 16.1816L10.7074 16.214L8.64404 16.5984C8.63536 16.6097 8.71348 16.4973 8.68124 16.5448V16.561V16.5785V16.6147L8.69364 16.6845L8.71844 16.8256C8.7358 16.9192 8.75192 17.0115 8.76804 17.1039C8.80152 17.2873 8.83252 17.4658 8.86352 17.6405C8.92428 17.9887 8.98752 18.3182 9.03588 18.6214L8.98876 18.589C9.60008 18.4817 10.1122 18.398 10.4768 18.3394L10.9021 18.272C10.9541 18.2619 11.0067 18.2557 11.0596 18.2533C11.0143 18.2686 10.9679 18.2798 10.9207 18.287L10.5078 18.3731C10.1494 18.4455 9.62984 18.5491 9.00364 18.6676L8.96396 18.6751V18.6352C8.90816 18.3331 8.8474 18.0037 8.78292 17.6567C8.75068 17.482 8.71844 17.3035 8.68496 17.1201C8.66884 17.0277 8.65148 16.9354 8.63536 16.8418L8.60932 16.702L8.59692 16.6309V16.5947V16.5772V16.5635L8.63412 16.5098L10.6987 16.1354L10.7372 16.1279L10.7446 16.1679C10.8537 16.7994 10.9393 17.326 10.9926 17.6892C11.0186 17.8602 11.0397 17.9999 11.0571 18.1085C11.0664 18.1566 11.0714 18.2055 11.072 18.2545V18.2545Z" fill="#E0E0E0"/>
<path d="M13.7739 17.7628C13.7582 17.7117 13.7458 17.6596 13.7367 17.6068C13.7132 17.4958 13.6847 17.3572 13.6499 17.1825C13.5768 16.8181 13.4751 16.3089 13.361 15.6924L13.4069 15.7249L11.3448 16.1067L11.382 16.0531V16.0693V16.0868V16.123L11.3944 16.1941L11.4204 16.3339C11.4365 16.4275 11.4539 16.5198 11.47 16.6122C11.5023 16.7956 11.5345 16.9741 11.5655 17.1488C11.6263 17.497 11.6833 17.8265 11.7366 18.1297L11.6907 18.0973C12.3021 17.99 12.8142 17.9064 13.1787 17.8477L13.6041 17.7803C13.6564 17.7702 13.7095 17.764 13.7628 17.7616C13.7174 17.7764 13.671 17.7877 13.6239 17.7953L13.211 17.8814C12.8526 17.9538 12.3331 18.0574 11.7056 18.1759L11.6672 18.1834L11.6597 18.1435C11.6039 17.8415 11.5432 17.512 11.4787 17.165C11.4477 16.9903 11.4142 16.8119 11.382 16.6284C11.3646 16.5373 11.3485 16.4437 11.3311 16.3513L11.3063 16.2103L11.2927 16.1392V16.103V16.0855V16.0768C11.2605 16.1255 11.3373 16.0119 11.3299 16.0231L13.3945 15.6487L13.4342 15.6412V15.6812C13.5445 16.3127 13.6289 16.8393 13.6822 17.2025C13.7082 17.3735 13.7305 17.5132 13.7467 17.6218C13.7593 17.668 13.7684 17.7152 13.7739 17.7628V17.7628Z" fill="#E0E0E0"/>
<path d="M16.4746 17.2711C16.4589 17.22 16.4465 17.1679 16.4374 17.1151C16.4151 17.004 16.3854 16.8655 16.3506 16.6908C16.2775 16.3264 16.177 15.8172 16.063 15.2007L16.1088 15.2331L14.0467 15.615C14.038 15.6262 14.1162 15.5139 14.0827 15.5613V15.5751V15.5925L14.0901 15.6287L14.1025 15.6999L14.136 15.8496C14.1534 15.9432 14.1695 16.0368 14.1856 16.1279C14.2178 16.3114 14.2501 16.4899 14.2811 16.6646C14.3418 17.0128 14.4051 17.3422 14.4522 17.6455L14.4063 17.6131C15.0176 17.5057 15.5298 17.4221 15.8943 17.3635L16.3209 17.2961C16.3729 17.286 16.4255 17.2798 16.4784 17.2773C16.4331 17.2926 16.3867 17.3039 16.3395 17.311L15.9266 17.3972C15.5682 17.4695 15.0486 17.5744 14.4224 17.6917L14.3828 17.6992L14.3753 17.6592C14.3195 17.3572 14.2588 17.0352 14.1955 16.6808C14.1633 16.5061 14.131 16.3276 14.0976 16.1442C14.0814 16.0531 14.0641 15.9595 14.048 15.8671L14.0219 15.7261L14.0095 15.6549V15.6188V15.6013V15.5863C13.976 15.635 14.0542 15.5214 14.0455 15.5326L16.1101 15.1582L16.1498 15.1508V15.1907C16.2601 15.8222 16.3457 16.3488 16.3978 16.712C16.425 16.883 16.4461 17.0228 16.4635 17.1313C16.4712 17.1775 16.4749 17.2243 16.4746 17.2711Z" fill="#E0E0E0"/>
<path d="M19.1754 16.7794C19.1754 16.7794 19.1592 16.722 19.1382 16.6234C19.1171 16.5248 19.0873 16.3738 19.0514 16.1991C18.9794 15.8346 18.8778 15.3255 18.7637 14.709L18.8096 14.7414L16.7474 15.1233C16.7388 15.1345 16.8169 15.0222 16.7846 15.0696V15.0834V15.1008L16.7908 15.137L16.8032 15.2082L16.8293 15.3479C16.8454 15.4415 16.8615 15.5351 16.8789 15.6262C16.9111 15.8097 16.9421 15.9882 16.9731 16.1629C17.0339 16.5111 17.0971 16.8405 17.1455 17.1438L17.0996 17.1114C17.7097 17.004 18.2218 16.9204 18.5876 16.8618L19.0129 16.7944C19.0649 16.7844 19.1175 16.7781 19.1704 16.7756C19.1256 16.7909 19.0795 16.8021 19.0328 16.8093L18.6186 16.8954C18.2602 16.9678 17.7407 17.0727 17.1145 17.19L17.076 17.1975L17.0686 17.1575L16.8876 16.1791C16.8566 16.0044 16.8231 15.8259 16.7896 15.6425C16.7735 15.5514 16.7574 15.4578 16.74 15.3654L16.714 15.2244L16.7016 15.1532V15.1183V15.0996V15.0846L16.7388 15.0309L18.8034 14.6565L18.8418 14.649L18.8492 14.689C18.9584 15.3217 19.0439 15.8471 19.0972 16.2103C19.1233 16.3813 19.1444 16.521 19.1617 16.6296C19.1709 16.679 19.1754 16.7291 19.1754 16.7794V16.7794Z" fill="#E0E0E0"/>
<path d="M6.72485 6.94775L6.44542 6.99861C6.34636 7.01663 6.28057 7.11208 6.29849 7.21178L6.57584 8.75548C6.59376 8.85518 6.68859 8.92139 6.78765 8.90336L7.06708 8.85251C7.16614 8.83448 7.23193 8.73904 7.21401 8.63933L6.93666 7.09563C6.91874 6.99593 6.82392 6.92972 6.72485 6.94775Z" fill="#E0E0E0"/>
<path d="M10.8714 6.19226L10.5919 6.24311C10.4929 6.26114 10.4271 6.35658 10.445 6.45628L10.7224 7.99999C10.7403 8.09969 10.8351 8.1659 10.9342 8.14787L11.2136 8.09701C11.3127 8.07898 11.3784 7.98354 11.3605 7.88384L11.0832 6.34014C11.0653 6.24044 10.9704 6.17423 10.8714 6.19226Z" fill="#E0E0E0"/>
<path d="M15.0171 5.43766L14.7377 5.48856C14.6387 5.50661 14.5729 5.60206 14.5908 5.70176L14.8684 7.24541C14.8864 7.34511 14.9812 7.41131 15.0803 7.39326L15.3597 7.34236C15.4588 7.32431 15.5245 7.22886 15.5066 7.12916L15.229 5.58551C15.211 5.48581 15.1162 5.41961 15.0171 5.43766Z" fill="#E0E0E0"/>
<path d="M20.2901 17.5793C20.2901 17.5793 20.274 17.5044 20.2467 17.3622C20.2195 17.2199 20.181 17.0077 20.1289 16.7382C20.0285 16.1878 19.8809 15.3841 19.6925 14.367C19.3205 12.319 18.786 9.39118 18.1437 5.86059L18.1883 5.89054L3.76093 8.51509L3.79689 8.46142C4.55825 12.7046 5.27621 16.7095 5.90489 20.1926L5.85777 20.1602L16.2812 18.2882L19.2374 17.7615L20.0211 17.6242L20.2244 17.5893L20.2951 17.5793L20.2294 17.593L20.0322 17.6317L19.2572 17.7777L16.3147 18.3244L5.87141 20.2463L5.83173 20.2538L5.82429 20.2126C5.19561 16.7182 4.47517 12.7184 3.71629 8.48139L3.70761 8.43646L3.75225 8.42773L18.1834 5.80693L18.2206 5.79944L18.228 5.83813C18.8555 9.3812 19.3775 12.319 19.7421 14.3757C19.9206 15.3966 20.062 16.199 20.1575 16.7469L20.2653 17.3709C20.2802 17.5082 20.2901 17.5793 20.2901 17.5793Z" fill="#E0E0E0"/>
<path d="M44.485 6.72297C44.8707 6.48862 45.2856 6.3069 45.7188 6.18259L45.973 4.95331L48.0364 4.91711L48.334 6.13641C48.7717 6.24584 49.1929 6.41373 49.5864 6.63561L50.6292 5.94671L52.1172 7.39065L51.4712 8.46268C51.7042 8.85293 51.8848 9.2726 52.0081 9.71068L53.2295 9.96028L53.2654 12.037L52.054 12.3365C51.945 12.7766 51.7782 13.2 51.558 13.5957L52.2424 14.6465L50.8078 16.1441L49.7426 15.4939C49.3551 15.7286 48.938 15.9099 48.5026 16.0331L48.2484 17.2623L46.185 17.2998L45.8874 16.0792C45.4498 15.9696 45.0286 15.8017 44.635 15.58L43.5922 16.2677L42.1042 14.825L42.7502 13.7517C42.5167 13.3618 42.3366 12.9421 42.2146 12.5037L40.9932 12.2541L40.956 10.1774L42.1687 9.87791C42.2768 9.43717 42.4437 9.01317 42.6647 8.61743L41.9814 7.56787L43.4149 6.07027L44.4813 6.72047L44.485 6.72297ZM45.5849 9.48479C45.2805 9.80187 45.0764 10.2027 44.9984 10.6365C44.9204 11.0703 44.972 11.5177 45.1466 11.922C45.3212 12.3263 45.6111 12.6694 45.9795 12.908C46.3479 13.1465 46.7783 13.2697 47.2163 13.262C47.6542 13.2543 48.0801 13.1161 48.44 12.8648C48.7999 12.6135 49.0777 12.2604 49.2383 11.8502C49.3988 11.44 49.4348 10.9911 49.3418 10.5603C49.2489 10.1295 49.031 9.7361 48.7159 9.42988C48.2934 9.01938 47.7262 8.79455 47.1391 8.80485C46.5519 8.81515 45.9929 9.05972 45.5849 9.48479Z" fill="#EBEBEB"/>
<path d="M33.702 5.9928H31.3063V9.75427H33.702V5.9928Z" fill="#263238"/>
<path d="M34.9854 7.11352H30.0526V3.06252C31.7787 2.63445 33.4292 2.60824 34.9854 3.06252V7.11352Z" fill="#FF725E"/>
<path d="M35.0437 3.08004C34.9867 3.11758 34.9255 3.14816 34.8614 3.17115C34.6944 3.24762 34.5229 3.31388 34.348 3.36958C34.086 3.45135 33.8188 3.51514 33.5482 3.56052C33.2159 3.61374 32.8803 3.64252 32.5438 3.64663C32.2076 3.64621 31.8719 3.62076 31.5394 3.57051C31.2682 3.52777 31.0001 3.46647 30.7371 3.38705C30.5601 3.33486 30.3862 3.27236 30.2163 3.19985C30.1526 3.17689 30.0915 3.14719 30.0341 3.11124C30.0341 3.09627 30.3056 3.20859 30.7545 3.32964C31.0164 3.39978 31.2823 3.45437 31.5506 3.49313C31.8794 3.53816 32.2108 3.56109 32.5426 3.56177C32.8747 3.55871 33.2061 3.53244 33.5346 3.48315C33.8031 3.44219 34.0689 3.3851 34.3307 3.31217C34.7721 3.18113 35.0375 3.06507 35.0437 3.08004Z" fill="#263238"/>
<path d="M31.682 7.11355C31.6585 7.11355 31.6399 6.3348 31.6399 5.37509C31.6399 4.41538 31.6585 3.63538 31.682 3.63538C31.7056 3.63538 31.7242 4.41413 31.7242 5.37509C31.7242 6.33605 31.7056 7.11355 31.682 7.11355Z" fill="#263238"/>
<path d="M32.6207 7.12978C32.5971 7.12978 32.5785 6.34853 32.5785 5.38258C32.5785 4.41662 32.5971 3.63538 32.6207 3.63538C32.6442 3.63538 32.6628 4.41662 32.6628 5.38258C32.6628 6.34853 32.6442 7.12978 32.6207 7.12978Z" fill="#263238"/>
<path d="M33.5594 7.11354C33.5358 7.11354 33.5172 6.33104 33.5172 5.36634C33.5172 4.40164 33.5358 3.61914 33.5594 3.61914C33.5829 3.61914 33.6015 4.40039 33.6015 5.36634C33.6015 6.33229 33.5829 7.11354 33.5594 7.11354Z" fill="#263238"/>
<path d="M34.3406 7.11358C34.317 7.11358 34.2984 6.26868 34.2984 5.22535C34.2984 4.18203 34.317 3.33838 34.3406 3.33838C34.3641 3.33838 34.3827 4.18327 34.3827 5.22535C34.3827 6.26743 34.3641 7.11358 34.3406 7.11358Z" fill="#263238"/>
<path d="M30.7942 7.09102C30.7706 7.09102 30.752 6.24488 30.752 5.2028C30.752 4.16072 30.7706 3.31458 30.7942 3.31458C30.8177 3.31458 30.8363 4.16072 30.8363 5.2028C30.8363 6.24488 30.8177 7.09102 30.7942 7.09102Z" fill="#263238"/>
<path d="M47.3405 12.092L46.1437 10.8315L44.1894 12.7112L45.3862 13.9716L47.3405 12.092Z" fill="#263238"/>
<path d="M47.3965 13.3311L44.9326 10.7328L47.0406 8.70728C48.1269 9.40116 48.9639 10.256 49.5058 11.3031L47.3965 13.3311Z" fill="#FF725E"/>
<path d="M45.3443 11.1696C45.3307 11.1546 45.8081 10.6704 46.4107 10.0813C47.0134 9.49225 47.5143 9.03174 47.5267 9.04547C47.5391 9.05919 47.063 9.54466 46.4603 10.1337C45.8577 10.7228 45.358 11.1845 45.3443 11.1696Z" fill="#263238"/>
<path d="M45.8143 11.665C45.9125 11.5476 46.0199 11.4383 46.1355 11.3381C46.3388 11.1434 46.624 10.8775 46.9402 10.5893L47.7549 9.84794L48.0029 9.62455C48.0624 9.57213 48.0922 9.54468 48.0947 9.54468C48.1219 9.56964 47.6222 10.0613 46.9886 10.6429C46.6724 10.9349 46.3822 11.1945 46.1689 11.3792C46.0585 11.4839 45.9399 11.5795 45.8143 11.665V11.665Z" fill="#263238"/>
<path d="M46.4392 12.3227C46.5395 12.2051 46.6486 12.0954 46.7654 11.9944C46.9712 11.7985 47.2614 11.5314 47.5825 11.2381L48.4108 10.4893L48.6588 10.2672C48.6891 10.2395 48.721 10.2137 48.7543 10.1898C48.6633 10.315 48.5576 10.4286 48.4394 10.528C48.2348 10.7265 47.9434 10.9948 47.6247 11.2881C47.306 11.5813 47.0047 11.8409 46.7926 12.0281C46.683 12.1359 46.5649 12.2344 46.4392 12.3227V12.3227Z" fill="#263238"/>
<path d="M47.0245 12.923C47.0109 12.908 47.4945 12.4238 48.1058 11.8422C48.7171 11.2606 49.2218 10.7989 49.2355 10.8138C49.2491 10.8288 48.7655 11.313 48.1542 11.8946C47.5429 12.4762 47.0382 12.9367 47.0245 12.923Z" fill="#263238"/>
<path d="M17.1597 11.9077L15.8609 13.0614L17.6497 15.1012L18.9485 13.9476L17.1597 11.9077Z" fill="#263238"/>
<path d="M18.3904 11.9009L15.7158 14.2721L13.7876 12.0781C14.5216 11.0148 15.3996 10.2061 16.4635 9.70691L18.3904 11.9009Z" fill="#FF725E"/>
<path d="M16.1634 13.8789C16.1485 13.8927 15.6848 13.3935 15.1255 12.7632C14.5663 12.133 14.1335 11.6126 14.1422 11.6001C14.1509 11.5876 14.6209 12.0856 15.1801 12.7158C15.7393 13.346 16.1783 13.8665 16.1634 13.8789Z" fill="#263238"/>
<path d="M16.6731 13.426C16.5632 13.3223 16.4613 13.2105 16.368 13.0915C16.1833 12.8781 15.9303 12.5811 15.6538 12.2516L14.9495 11.403L14.7312 11.1446C14.6816 11.0822 14.6556 11.0523 14.6556 11.0485C14.6816 11.0223 15.1516 11.5477 15.7034 12.2042C15.9799 12.5349 16.2254 12.8369 16.4015 13.0578C16.5018 13.1729 16.5926 13.296 16.6731 13.426V13.426Z" fill="#263238"/>
<path d="M17.3526 12.8232C17.2394 12.7183 17.1346 12.6048 17.0388 12.4837C16.8528 12.2678 16.5986 11.967 16.3209 11.6313L15.6153 10.769L15.4045 10.5044C15.3771 10.4735 15.3526 10.44 15.3314 10.4045C15.4512 10.5019 15.5593 10.6129 15.6538 10.7353C15.8435 10.9499 16.0989 11.2494 16.3767 11.5851C16.6544 11.9209 16.9024 12.2266 17.0785 12.4513C17.1793 12.5679 17.271 12.6922 17.3526 12.8232V12.8232Z" fill="#263238"/>
<path d="M17.9713 12.259C17.9564 12.2715 17.4939 11.7598 16.9409 11.1358C16.3878 10.5118 15.9489 9.97145 15.965 9.95897C15.9811 9.94649 16.4412 10.4507 16.9942 11.0822C17.5472 11.7137 17.9862 12.2453 17.9713 12.259Z" fill="#263238"/>
<path d="M46.0005 41.9412C53.7113 34.1807 53.7113 21.5986 46.0005 13.8381C38.2898 6.07763 25.7883 6.07763 18.0776 13.8381C10.3669 21.5986 10.3669 34.1807 18.0776 41.9412C25.7883 49.7017 38.2898 49.7017 46.0005 41.9412Z" fill="#FF725E"/>
<path d="M44.866 40.7993C51.95 33.6695 51.95 22.1098 44.866 14.98C37.7819 7.85021 26.2963 7.8502 19.2122 14.98C12.1281 22.1098 12.1281 33.6695 19.2122 40.7993C26.2963 47.9291 37.7819 47.9291 44.866 40.7993Z" fill="white"/>
<path d="M32.0391 46.2084C22.0026 46.2084 13.8372 37.9903 13.8372 27.889C13.8372 17.7877 22.0026 9.56958 32.0391 9.56958C42.0757 9.56958 50.2411 17.7877 50.2411 27.889C50.2411 37.9903 42.0757 46.2084 32.0391 46.2084ZM32.0391 9.69438C22.0708 9.69438 13.9612 17.8563 13.9612 27.889C13.9612 37.9216 22.072 46.0836 32.0391 46.0836C42.0062 46.0836 50.1171 37.9216 50.1171 27.889C50.1171 17.8563 42.0075 9.69438 32.0391 9.69438Z" fill="#263238"/>
<path d="M20.6559 20.5982C21.4111 18.237 22.9599 16.6395 25.0121 15.2655C27.0643 13.8914 29.8617 13.3748 32.3181 13.5844V28.2984L20.6559 20.5982Z" fill="#FF725E"/>
<g opacity="0.8">
<path d="M20.6559 20.5982C21.4111 18.237 22.9599 16.6395 25.0121 15.2655C27.0643 13.8914 29.8617 13.3748 32.3181 13.5844V28.2984L20.6559 20.5982Z" fill="white"/>
</g>
<path d="M30.7483 28.2185L22.5879 21.8387L32.1445 26.2729L32.4248 27.9577L30.7483 28.2185Z" fill="#FF725E"/>
<g opacity="0.4">
<path d="M22.5879 21.8387L31.1091 26.8807L32.1445 26.2729L22.5879 21.8387Z" fill="black"/>
</g>
<path d="M33.073 29.5694C33.9405 29.2114 34.3552 28.2134 33.9995 27.3404C33.6437 26.4674 32.6522 26.0499 31.7847 26.408C30.9173 26.766 30.5025 27.764 30.8583 28.637C31.214 29.51 32.2056 29.9275 33.073 29.5694Z" fill="#FAFAFA"/>
<path d="M32.4297 26.2766C32.2917 26.2923 32.1547 26.3157 32.0193 26.3465C31.7111 26.4289 31.4324 26.5976 31.2157 26.8332C30.9991 27.0687 30.8533 27.3613 30.7954 27.6769C30.7434 27.9697 30.7695 28.2711 30.871 28.5505C30.9244 28.7022 31.0009 28.8445 31.098 28.9723C31.1957 29.1084 31.3146 29.2276 31.4501 29.3255C31.7339 29.5355 32.0769 29.6487 32.4291 29.6487C32.7813 29.6487 33.1243 29.5355 33.4081 29.3255C33.5442 29.228 33.6636 29.1087 33.7615 28.9723C33.8581 28.8442 33.9346 28.7019 33.9884 28.5505C34.0896 28.271 34.1152 27.9696 34.0628 27.6769C34.0171 27.42 33.9117 27.1775 33.7553 26.9693C33.5285 26.6638 33.2062 26.444 32.8402 26.3453C32.7047 26.3145 32.5677 26.2912 32.4297 26.2754C32.5701 26.2653 32.7112 26.2779 32.8476 26.3128C33.1678 26.39 33.4591 26.5584 33.6868 26.7979C33.9144 27.0374 34.0686 27.3378 34.131 27.6632C34.1893 27.9698 34.1649 28.2865 34.0603 28.5804C33.9431 28.9053 33.7336 29.1883 33.4577 29.3941C33.1597 29.6145 32.7995 29.7334 32.4297 29.7334C32.0599 29.7334 31.6998 29.6145 31.4018 29.3941C31.2586 29.2902 31.133 29.1638 31.0298 29.0197C30.9294 28.8851 30.8504 28.7357 30.7954 28.5767C30.6904 28.2829 30.6656 27.9662 30.7235 27.6594C30.7859 27.334 30.9401 27.0336 31.1677 26.7942C31.3953 26.5547 31.6867 26.3863 32.0069 26.3091C32.1452 26.2755 32.288 26.2645 32.4297 26.2766V26.2766Z" fill="#263238"/>
<path d="M32.4297 26.7134C32.6799 26.7131 32.9246 26.7876 33.1327 26.9273C33.3409 27.067 33.5032 27.2658 33.5991 27.4983C33.6951 27.7309 33.7203 27.9869 33.6716 28.2339C33.623 28.4809 33.5026 28.7079 33.3258 28.886C33.1489 29.0642 32.9236 29.1855 32.6782 29.2347C32.4328 29.284 32.1784 29.2588 31.9472 29.1625C31.7161 29.0662 31.5184 28.9031 31.3794 28.6937C31.2404 28.4843 31.1662 28.2382 31.1662 27.9863C31.1662 27.6489 31.2993 27.3254 31.5362 27.0867C31.7731 26.848 32.0945 26.7137 32.4297 26.7134V26.7134Z" fill="#263238"/>
<path d="M32.3454 27.4847C32.3454 27.4847 31.9982 16.4811 32.5041 14.1598C32.5041 14.1598 33.356 20.8303 32.3454 27.4847Z" fill="#263238"/>
<path d="M31.3571 44.767H31.3361L31.3844 43.3942H31.4229L31.3571 44.767ZM38.1635 43.6538L37.6551 42.3808L37.6923 42.3658L38.1821 43.6475L38.1635 43.6538ZM24.6636 42.9998L24.6425 42.9886L25.2501 41.7593L25.2836 41.7768L24.6636 42.9998ZM43.9456 39.8424L42.9735 38.8802L42.9995 38.854L43.963 39.8249L43.9456 39.8424ZM19.2696 38.6481L19.2485 38.6218L20.3063 37.7482L20.3236 37.7707L19.2696 38.6481ZM47.6991 33.9918L46.4207 33.5138L46.4343 33.4776L47.7078 33.9705L47.6991 33.9918ZM16.094 32.463L16.0841 32.428L17.4022 32.0736V32.0961L16.094 32.463ZM47.3941 27.1864V27.1652L48.7581 27.0828V27.1215L47.3941 27.1864ZM47.3941 27.1627V27.1315L48.7581 27.0491V27.0816L47.3941 27.1627ZM17.0413 25.7188L15.6935 25.5129V25.4817L17.0426 25.6888L17.0413 25.7188ZM45.7238 20.9938L45.7114 20.9689L46.9229 20.3374L46.9377 20.3661L45.7238 20.9938ZM19.2845 19.7458L18.1375 18.997L18.1524 18.9733L19.3019 19.7121L19.2845 19.7458ZM41.7049 16.0493L41.6814 16.0305L42.5333 14.9585L42.5568 14.9772L41.7049 16.0493ZM23.7473 15.1944L23.0033 14.045L23.0243 14.0325L23.7807 15.1744L23.7473 15.1944ZM36.0332 13.1676L36.0071 13.1614L36.3494 11.8323L36.3829 11.841L36.0332 13.1676ZM29.6633 12.8694L29.4413 11.514H29.4711L29.6918 12.8694H29.6633Z" fill="#263238"/>
</g>
<defs>
<clipPath id="clip0_4808_36156">
<rect width="62" height="52" fill="white"/>
</clipPath>
</defs>
</svg>
