<svg width="48" height="48" viewBox="0 0 48 48" fill="none" xmlns="http://www.w3.org/2000/svg">
<path opacity="0.4" d="M13.46 39.4C15.1 37.64 17.6 37.78 19.04 39.7L21.06 42.4C22.68 44.54 25.3 44.54 26.92 42.4L28.94 39.7C30.38 37.78 32.88 37.64 34.52 39.4C38.08 43.2 40.98 41.94 40.98 36.62V14.08C40.98 6.02 39.1 4 31.54 4H16.42C8.85998 4 6.97998 6.02 6.97998 14.08V36.6C6.99998 41.94 9.91996 43.18 13.46 39.4Z" fill="#00439C"/>
<path d="M29.5 21.5H18.5C17.68 21.5 17 20.82 17 20C17 19.18 17.68 18.5 18.5 18.5H29.5C30.32 18.5 31 19.18 31 20C31 20.82 30.32 21.5 29.5 21.5Z" fill="#00439C"/>
</svg>
