<svg width="201" height="49" viewBox="0 0 201 49" fill="none" xmlns="http://www.w3.org/2000/svg">
<path d="M74.9885 18.546C74.8795 17.4468 74.4117 16.5929 73.5851 15.9843C72.7584 15.3756 71.6365 15.0713 70.2194 15.0713C69.2565 15.0713 68.4435 15.2076 67.7804 15.4801C67.1172 15.7435 66.6085 16.1114 66.2542 16.5838C65.909 17.0562 65.7364 17.5921 65.7364 18.1917C65.7183 18.6913 65.8227 19.1273 66.0498 19.4998C66.286 19.8722 66.6085 20.1947 67.0173 20.4672C67.4261 20.7307 67.8984 20.9623 68.4344 21.1622C68.9704 21.3529 69.5427 21.5164 70.1513 21.6527L72.6585 22.2522C73.8757 22.5248 74.9931 22.8881 76.0105 23.3423C77.0279 23.7965 77.9091 24.3552 78.6539 25.0183C79.3988 25.6815 79.9757 26.4627 80.3845 27.362C80.8023 28.2613 81.0158 29.2924 81.0249 30.4551C81.0158 32.1629 80.5798 33.6436 79.7168 34.8972C78.8629 36.1417 77.6274 37.1092 76.0105 37.7996C74.4026 38.4809 72.4632 38.8215 70.1922 38.8215C67.9393 38.8215 65.9772 38.4763 64.3057 37.7859C62.6433 37.0956 61.3443 36.0736 60.4087 34.7201C59.4821 33.3575 58.9961 31.6724 58.9507 29.6648H64.66C64.7236 30.6005 64.9916 31.3817 65.4639 32.0085C65.9454 32.6262 66.5858 33.094 67.3852 33.412C68.1937 33.7208 69.1066 33.8753 70.124 33.8753C71.1233 33.8753 71.9908 33.7299 72.7266 33.4392C73.4715 33.1485 74.0483 32.7443 74.4571 32.2265C74.8659 31.7087 75.0703 31.1137 75.0703 30.4415C75.0703 29.8147 74.8841 29.2878 74.5116 28.8609C74.1483 28.4339 73.6123 28.0706 72.9037 27.7708C72.2043 27.471 71.3458 27.1985 70.3284 26.9532L67.2898 26.1902C64.937 25.6179 63.0794 24.7231 61.7168 23.5058C60.3542 22.2886 59.6774 20.6489 59.6865 18.5868C59.6774 16.8972 60.1271 15.421 61.0355 14.1584C61.9529 12.8957 63.2111 11.9101 64.8099 11.2015C66.4087 10.493 68.2255 10.1387 70.2603 10.1387C72.3315 10.1387 74.1392 10.493 75.6835 11.2015C77.2368 11.9101 78.445 12.8957 79.308 14.1584C80.171 15.421 80.6161 16.8836 80.6433 18.546H74.9885Z" fill="black"/>
<path d="M90.8527 38.8215C89.5173 38.8215 88.3273 38.5899 87.2826 38.1266C86.238 37.6542 85.4113 36.9593 84.8027 36.0418C84.2031 35.1152 83.9034 33.9616 83.9034 32.5808C83.9034 31.418 84.1169 30.4415 84.5438 29.6512C84.9708 28.8609 85.5521 28.225 86.2879 27.7435C87.0237 27.2621 87.8595 26.8987 88.7951 26.6535C89.7399 26.4082 90.73 26.2356 91.7656 26.1357C92.9829 26.0085 93.9639 25.8904 94.7088 25.7814C95.4537 25.6633 95.9942 25.4907 96.3303 25.2636C96.6665 25.0365 96.8345 24.7004 96.8345 24.2553V24.1735C96.8345 23.3105 96.562 22.6429 96.0169 22.1705C95.481 21.6981 94.7179 21.4619 93.7278 21.4619C92.6831 21.4619 91.8519 21.6936 91.2342 22.1569C90.6165 22.6111 90.2077 23.1834 90.0078 23.8737L84.6392 23.4377C84.9117 22.1659 85.4477 21.0668 86.2471 20.1402C87.0465 19.2045 88.0775 18.4869 89.3402 17.9873C90.6119 17.4786 92.0836 17.2242 93.755 17.2242C94.9178 17.2242 96.0306 17.3605 97.0934 17.633C98.1653 17.9055 99.1146 18.3279 99.9412 18.9002C100.777 19.4725 101.436 20.2083 101.917 21.1077C102.398 21.9979 102.639 23.0653 102.639 24.3098V38.4264H97.1343V35.524H96.9708C96.6347 36.1781 96.185 36.7549 95.6218 37.2545C95.0586 37.7451 94.3818 38.1311 93.5915 38.4127C92.8012 38.6853 91.8882 38.8215 90.8527 38.8215ZM92.515 34.8155C93.3689 34.8155 94.1229 34.6474 94.777 34.3113C95.431 33.9661 95.9443 33.5028 96.3167 32.9214C96.6892 32.3401 96.8754 31.6815 96.8754 30.9457V28.7246C96.6937 28.8427 96.4439 28.9517 96.1259 29.0516C95.8171 29.1425 95.4674 29.2288 95.0767 29.3105C94.6861 29.3832 94.2955 29.4513 93.9049 29.5149C93.5143 29.5694 93.16 29.6194 92.8421 29.6648C92.1608 29.7647 91.5658 29.9237 91.0571 30.1417C90.5483 30.3597 90.1532 30.655 89.8716 31.0274C89.59 31.3908 89.4492 31.845 89.4492 32.39C89.4492 33.1803 89.7353 33.7844 90.3076 34.2023C90.889 34.6111 91.6248 34.8155 92.515 34.8155Z" fill="black"/>
<path d="M118.398 17.4967V21.8571H105.48V17.4967H118.398ZM108.437 38.4264V15.9843C108.437 14.4672 108.732 13.2091 109.323 12.2098C109.922 11.2106 110.74 10.4612 111.775 9.96154C112.811 9.46191 113.987 9.2121 115.305 9.2121C116.195 9.2121 117.008 9.28023 117.744 9.4165C118.489 9.55276 119.043 9.67539 119.406 9.7844L118.37 14.1447C118.143 14.0721 117.862 14.0039 117.526 13.9403C117.199 13.8768 116.863 13.845 116.517 13.845C115.663 13.845 115.068 14.0448 114.732 14.4445C114.396 14.8351 114.228 15.3847 114.228 16.0933V38.4264H108.437Z" fill="black"/>
<path d="M121.944 38.4264V17.4967H127.571V21.1485H127.789C128.171 19.8495 128.811 18.8684 129.711 18.2053C130.61 17.5331 131.646 17.197 132.817 17.197C133.108 17.197 133.422 17.2151 133.758 17.2515C134.094 17.2878 134.389 17.3378 134.643 17.4014V22.552C134.371 22.4703 133.994 22.3976 133.512 22.334C133.031 22.2704 132.59 22.2386 132.191 22.2386C131.337 22.2386 130.574 22.4248 129.902 22.7973C129.238 23.1606 128.712 23.6693 128.321 24.3234C127.939 24.9775 127.749 25.7314 127.749 26.5853V38.4264H121.944Z" fill="black"/>
<path d="M146.208 38.8351C144.056 38.8351 142.202 38.3991 140.649 37.527C139.105 36.6459 137.915 35.4014 137.079 33.7935C136.243 32.1765 135.825 30.2644 135.825 28.0569C135.825 25.904 136.243 24.0145 137.079 22.3885C137.915 20.7625 139.091 19.4952 140.608 18.5868C142.134 17.6784 143.924 17.2242 145.977 17.2242C147.358 17.2242 148.643 17.4468 149.833 17.8919C151.032 18.3279 152.077 18.9865 152.967 19.8677C153.866 20.7488 154.566 21.8571 155.065 23.1924C155.565 24.5187 155.815 26.0721 155.815 27.8525V29.4468H138.142V25.8495H150.351C150.351 25.0138 150.169 24.2734 149.806 23.6285C149.442 22.9835 148.938 22.4793 148.293 22.116C147.657 21.7435 146.917 21.5573 146.072 21.5573C145.191 21.5573 144.41 21.7617 143.729 22.1705C143.056 22.5702 142.529 23.1107 142.148 23.792C141.766 24.4642 141.571 25.2136 141.562 26.0403V29.4604C141.562 30.496 141.753 31.3908 142.134 32.1448C142.525 32.8987 143.075 33.4801 143.783 33.8889C144.492 34.2977 145.332 34.5021 146.304 34.5021C146.949 34.5021 147.539 34.4112 148.075 34.2295C148.611 34.0479 149.07 33.7753 149.452 33.412C149.833 33.0486 150.124 32.6035 150.324 32.0766L155.692 32.4309C155.42 33.7208 154.861 34.8473 154.016 35.8102C153.181 36.764 152.1 37.5089 150.773 38.0448C149.456 38.5717 147.934 38.8351 146.208 38.8351Z" fill="black"/>
<path d="M165.408 26.3264V38.4264H159.603V17.4967H165.135V21.1894H165.38C165.844 19.9721 166.62 19.0092 167.71 18.3007C168.801 17.583 170.122 17.2242 171.676 17.2242C173.129 17.2242 174.396 17.5422 175.477 18.178C176.558 18.8139 177.399 19.7223 177.998 20.9033C178.598 22.0751 178.897 23.474 178.897 25.1001V38.4264H173.093V26.1357C173.102 24.8548 172.775 23.8556 172.112 23.1379C171.448 22.4112 170.536 22.0478 169.373 22.0478C168.592 22.0478 167.901 22.2159 167.302 22.552C166.711 22.8881 166.248 23.3787 165.912 24.0236C165.585 24.6595 165.417 25.4271 165.408 26.3264Z" fill="black"/>
<path d="M183.363 38.4264V34.9653L193.61 22.2795V22.1296H183.718V17.4967H200.6V21.2712L190.98 33.6436V33.7935H200.955V38.4264H183.363Z" fill="black"/>
<path fill-rule="evenodd" clip-rule="evenodd" d="M14.5377 16.4906C13.6147 16.1445 12.6098 16.0805 11.6504 16.3067C10.691 16.5328 9.8204 17.039 9.14921 17.7609C8.47803 18.4828 8.03649 19.3878 7.88066 20.3611C7.72483 21.3344 7.86172 22.3321 8.27398 23.2275C8.68623 24.1228 9.35523 24.8755 10.1961 25.3899C11.0369 25.9043 12.0116 26.1572 12.9965 26.1166C13.9813 26.076 14.9319 25.7437 15.7275 25.1618C16.5232 24.5799 17.1279 23.7747 17.4651 22.8484L23.9147 25.1959C23.1123 27.4004 21.6729 29.3168 19.7793 30.7017C17.8857 32.0866 15.6233 32.8776 13.2793 32.9743C10.9353 33.071 8.6154 32.4689 6.6142 31.2446C4.613 30.0203 3.02074 28.229 2.03957 26.098C2.03957 26.098 2.03957 26.098 2.03957 26.098C1.05839 23.967 0.73257 21.5926 1.10346 19.2761C1.47435 16.9596 2.52522 14.8055 4.12266 13.0874C5.7201 11.3693 7.79205 10.1646 10.0755 9.62627C12.3589 9.08796 14.7507 9.24031 16.9474 10.064L14.5377 16.4906Z" fill="black"/>
<path fill-rule="evenodd" clip-rule="evenodd" d="M34.9948 32.7627C35.9177 33.1087 36.9227 33.1727 37.8821 32.9466C38.8415 32.7204 39.7121 32.2142 40.3833 31.4923C41.0545 30.7704 41.496 29.8654 41.6518 28.8921C41.8077 27.9188 41.6708 26.9211 41.2585 26.0258C40.8463 25.1304 40.1772 24.3778 39.3364 23.8633C38.4956 23.3489 37.5209 23.096 36.536 23.1366C35.5511 23.1772 34.6006 23.5096 33.8049 24.0915C33.0093 24.6734 32.4046 25.4785 32.0674 26.4048L25.6178 24.0573C26.4202 21.8528 27.8596 19.9364 29.7532 18.5515C31.6468 17.1666 33.9092 16.3756 36.2532 16.2789C38.5972 16.1822 40.9171 16.7843 42.9183 18.0086C44.9195 19.2329 46.5117 21.0243 47.4929 23.1552C48.4741 25.2862 48.7999 27.6607 48.429 29.9772C48.0581 32.2937 47.0073 34.4477 45.4098 36.1658C43.8124 37.8839 41.7404 39.0886 39.457 39.6269C37.1736 40.1653 34.7817 40.0129 32.5851 39.1893L34.9948 32.7627Z" fill="black"/>
<path fill-rule="evenodd" clip-rule="evenodd" d="M26.8033 17.3072C25.8738 16.9791 25.0628 16.3821 24.4732 15.5922C23.8837 14.8022 23.5421 13.8549 23.492 12.8705C23.4419 11.886 23.6854 10.9089 24.1916 10.0631C24.6979 9.21738 25.4441 8.54112 26.3354 8.12023C27.2267 7.69934 28.223 7.5528 29.1978 7.69921C30.1725 7.84563 31.0818 8.27839 31.8101 8.94257C32.5385 9.60674 33.053 10.4724 33.2885 11.4295C33.5239 12.3867 33.4696 13.3922 33.1325 14.3185L39.5821 16.666C40.3845 14.4614 40.5137 12.0682 39.9533 9.79011C39.393 7.51202 38.1683 5.45181 36.4348 3.87106C34.7013 2.29031 32.5372 1.26031 30.2173 0.911838C27.8973 0.563366 25.5261 0.912138 23.4047 1.91387C21.2833 2.9156 19.5074 4.52511 18.3025 6.53806C17.0976 8.551 16.5181 10.8766 16.6374 13.2196C16.7567 15.5625 17.5696 17.8172 18.9727 19.6973C20.3759 21.5774 22.3061 22.9982 24.5183 23.7792L26.8033 17.3072Z" fill="black"/>
<path fill-rule="evenodd" clip-rule="evenodd" d="M22.7326 31.9935C23.6621 32.3216 24.4731 32.9186 25.0626 33.7085C25.6522 34.4985 25.9937 35.4458 26.0439 36.4302C26.094 37.4147 25.8505 38.3918 25.3442 39.2375C24.838 40.0833 24.0918 40.7596 23.2005 41.1804C22.3092 41.6013 21.3129 41.7479 20.3381 41.6015C19.3633 41.455 18.4541 41.0223 17.7257 40.3581C16.9974 39.6939 16.4828 38.8283 16.2474 37.8712C16.0119 36.914 16.0662 35.9084 16.4034 34.9822L9.95376 32.6347C9.15138 34.8392 9.02217 37.2325 9.58254 39.5106C10.1429 41.7887 11.3676 43.8489 13.1011 45.4296C14.8345 47.0104 16.9986 48.0404 19.3186 48.3888C21.6386 48.7373 24.0098 48.3885 26.1312 47.3868C28.2526 46.3851 30.0284 44.7756 31.2333 42.7626C32.4382 40.7497 33.0178 38.4241 32.8985 36.0811C32.7792 33.7382 31.9663 31.4835 30.5631 29.6034C29.16 27.7233 27.2298 26.3025 25.0176 25.5215L22.7326 31.9935Z" fill="black"/>
</svg>
