<svg width="29" height="29" viewBox="0 0 29 29" fill="none" xmlns="http://www.w3.org/2000/svg">
<path fill-rule="evenodd" clip-rule="evenodd" d="M8.02449 9.25807C7.47924 9.05412 6.88553 9.0164 6.31874 9.14969C5.75196 9.28298 5.23766 9.58128 4.84114 10.0067C4.44463 10.4321 4.18378 10.9655 4.09172 11.5391C3.99966 12.1127 4.08053 12.7006 4.32408 13.2283C4.56762 13.7559 4.96285 14.1995 5.45959 14.5026C5.95633 14.8058 6.53217 14.9549 7.11399 14.9309C7.69582 14.907 8.2574 14.7111 8.72743 14.3682C9.19745 14.0253 9.55473 13.5508 9.7539 13.0049L13.5641 14.3883C13.0901 15.6875 12.2398 16.8168 11.1211 17.633C10.0024 18.4492 8.66584 18.9153 7.28107 18.9723C5.89629 19.0293 4.52578 18.6745 3.34353 17.953C2.16128 17.2314 1.22062 16.1758 0.640972 14.9199C0.640972 14.9199 0.640972 14.9199 0.640972 14.9199C0.0613246 13.6641 -0.131163 12.2648 0.0879473 10.8996C0.307058 9.53446 0.927883 8.26503 1.8716 7.25251C2.81532 6.23999 4.03937 5.53004 5.38834 5.2128C6.73731 4.89556 8.15036 4.98534 9.44808 5.47074L8.02449 9.25807Z" fill="#6C63FF"/>
<path fill-rule="evenodd" clip-rule="evenodd" d="M20.11 18.8479C20.6552 19.0519 21.2489 19.0896 21.8157 18.9563C22.3825 18.823 22.8968 18.5247 23.2933 18.0993C23.6898 17.6739 23.9507 17.1405 24.0427 16.5669C24.1348 15.9933 24.0539 15.4054 23.8104 14.8777C23.5668 14.3501 23.1716 13.9065 22.6749 13.6034C22.1781 13.3002 21.6023 13.1512 21.0205 13.1751C20.4386 13.199 19.8771 13.3949 19.407 13.7378C18.937 14.0807 18.5797 14.5553 18.3806 15.1011L14.5703 13.7177C15.0443 12.4185 15.8947 11.2892 17.0134 10.473C18.132 9.65684 19.4686 9.19068 20.8534 9.13371C22.2382 9.07675 23.6087 9.43154 24.7909 10.1531C25.9732 10.8746 26.9138 11.9302 27.4935 13.1861C28.0731 14.4419 28.2656 15.8412 28.0465 17.2064C27.8274 18.5716 27.2066 19.841 26.2629 20.8535C25.3191 21.866 24.0951 22.576 22.7461 22.8932C21.3971 23.2105 19.9841 23.1207 18.6864 22.6353L20.11 18.8479Z" fill="#6C63FF"/>
<path fill-rule="evenodd" clip-rule="evenodd" d="M15.2707 9.73954C14.7216 9.54615 14.2425 9.19436 13.8942 8.72882C13.5459 8.26328 13.3441 7.705 13.3145 7.12486C13.2849 6.54471 13.4287 5.96887 13.7278 5.47045C14.0269 4.97202 14.4677 4.57349 14.9943 4.32545C15.5208 4.07741 16.1094 3.99105 16.6853 4.07734C17.2611 4.16362 17.7983 4.41866 18.2286 4.81007C18.6589 5.20148 18.9629 5.71161 19.1019 6.27569C19.241 6.83977 19.209 7.43236 19.0098 7.97822L22.82 9.36163C23.2941 8.06246 23.3704 6.65208 23.0393 5.30955C22.7083 3.96702 21.9848 2.75289 20.9607 1.82132C19.9366 0.88975 18.6581 0.282752 17.2876 0.07739C15.917 -0.127972 14.5161 0.077566 13.2629 0.667909C12.0096 1.25825 10.9605 2.20677 10.2487 3.39304C9.53686 4.57932 9.19447 5.94983 9.26496 7.33059C9.33546 8.71135 9.81566 10.0401 10.6446 11.1481C11.4736 12.2561 12.6139 13.0934 13.9208 13.5536L15.2707 9.73954Z" fill="#6C63FF"/>
<path fill-rule="evenodd" clip-rule="evenodd" d="M12.8658 18.3949C13.4149 18.5883 13.894 18.9401 14.2423 19.4056C14.5906 19.8712 14.7924 20.4295 14.822 21.0096C14.8516 21.5897 14.7078 22.1656 14.4087 22.664C14.1096 23.1624 13.6688 23.561 13.1422 23.809C12.6157 24.057 12.0271 24.1434 11.4512 24.0571C10.8754 23.9708 10.3382 23.7158 9.90791 23.3244C9.47763 22.933 9.17364 22.4228 9.03455 21.8588C8.89545 21.2947 8.92752 20.7021 9.12669 20.1562L5.31646 18.7728C4.84244 20.072 4.7661 21.4824 5.09715 22.8249C5.4282 24.1674 6.1517 25.3816 7.17579 26.3131C8.19988 27.2447 9.47837 27.8517 10.8489 28.0571C12.2195 28.2624 13.6204 28.0569 14.8736 27.4665C16.1269 26.8762 17.176 25.9277 17.8878 24.7414C18.5996 23.5551 18.942 22.1846 18.8715 20.8039C18.801 19.4231 18.3208 18.0944 17.4919 16.9864C16.6629 15.8784 15.5226 15.0411 14.2157 14.5808L12.8658 18.3949Z" fill="#6C63FF"/>
</svg>
