<svg width="118" height="32" viewBox="0 0 118 32" fill="none" xmlns="http://www.w3.org/2000/svg">
<path d="M7.92414 8.44714C4.74998 8.41645 1.85319 10.3169 0.617201 13.2407C-0.618791 16.1645 0.0364722 19.5664 2.27017 21.8218C4.50386 24.0772 7.89952 24.7656 10.8351 23.5579C13.7707 22.3502 15.699 19.4718 15.699 16.2975H10.2436C10.2436 17.2763 9.66472 18.1403 8.7595 18.5127C7.85429 18.8851 6.83511 18.6784 6.14633 17.983C5.45755 17.2875 5.26086 16.2664 5.64199 15.3648C6.02311 14.4632 6.89262 13.8929 7.8714 13.9024L7.92414 8.44714Z" fill="black"/>
<path d="M24.4583 23.5582C27.6325 23.5889 30.5293 21.6886 31.7652 18.7648C33.0012 15.841 32.346 12.4389 30.1123 10.1835C27.8786 7.92814 24.4829 7.23998 21.5473 8.44764C18.6117 9.6553 16.6834 12.5336 16.6834 15.7079H22.1389C22.1389 14.7291 22.7177 13.8652 23.6229 13.4929C24.5282 13.1205 25.5473 13.3269 26.2361 14.0224C26.9249 14.7179 27.1216 15.739 26.7405 16.6406C26.3593 17.5421 25.4898 18.1126 24.5111 18.1032L24.4583 23.5582Z" fill="black"/>
<path d="M15.8638 15.6989C12.6897 15.7295 9.79272 13.8293 8.55673 10.9055C7.32074 7.98167 7.97618 4.57957 10.2099 2.32417C12.4436 0.0687655 15.839 -0.619572 18.7747 0.588089C21.7103 1.79575 23.6387 4.67419 23.6387 7.8485H18.1833C18.1833 6.86968 17.6044 6.00569 16.6992 5.6333C15.794 5.26091 14.7748 5.46757 14.086 6.16304C13.3973 6.8585 13.2006 7.87961 13.5817 8.78118C13.9628 9.68275 14.8323 10.2532 15.8111 10.2438L15.8638 15.6989Z" fill="black"/>
<path d="M8.73901 24.0759C8.70832 27.25 10.6088 30.1468 13.5326 31.3828C16.4564 32.6188 19.8585 31.9635 22.1139 29.7298C24.3693 27.4961 25.0574 24.1005 23.8498 21.1649C22.6421 18.2293 19.7637 16.301 16.5894 16.301V21.7564C17.5682 21.7564 18.4322 22.3353 18.8046 23.2405C19.177 24.1457 18.9705 25.1649 18.275 25.8537C17.5795 26.5424 16.5583 26.7391 15.6567 26.358C14.7551 25.9769 14.1848 25.1074 14.1943 24.1286L8.73901 24.0759Z" fill="black"/>
<path d="M46.8028 12.8042C46.7414 12.1857 46.4782 11.7053 46.0132 11.3629C45.5481 11.0205 44.9169 10.8492 44.1196 10.8492C43.5778 10.8492 43.1204 10.9259 42.7473 11.0792C42.3742 11.2275 42.088 11.4344 41.8887 11.7002C41.6945 11.966 41.5974 12.2675 41.5974 12.6048C41.5871 12.8859 41.6459 13.1312 41.7737 13.3408C41.9066 13.5503 42.088 13.7318 42.318 13.8851C42.548 14.0333 42.8137 14.1636 43.1153 14.2761C43.4168 14.3834 43.7388 14.4754 44.0812 14.5521L45.4918 14.8894C46.1767 15.0427 46.8053 15.2471 47.3778 15.5027C47.9502 15.7582 48.4459 16.0726 48.865 16.4456C49.2841 16.8187 49.6086 17.2583 49.8386 17.7643C50.0737 18.2702 50.1938 18.8503 50.199 19.5045C50.1938 20.4653 49.9485 21.2984 49.463 22.0037C48.9826 22.7039 48.2875 23.2482 47.3778 23.6366C46.4731 24.02 45.382 24.2116 44.1042 24.2116C42.8367 24.2116 41.7328 24.0174 40.7924 23.629C39.8571 23.2405 39.1263 22.6656 38.5998 21.9041C38.0785 21.1374 37.8051 20.1894 37.7795 19.0599H40.9917C41.0275 19.5863 41.1783 20.0258 41.444 20.3785C41.7149 20.726 42.0752 20.9892 42.525 21.1681C42.9799 21.3419 43.4935 21.4287 44.0659 21.4287C44.6281 21.4287 45.1162 21.347 45.5302 21.1834C45.9493 21.0199 46.2738 20.7924 46.5038 20.5011C46.7338 20.2098 46.8488 19.875 46.8488 19.4968C46.8488 19.1442 46.744 18.8478 46.5345 18.6075C46.33 18.3673 46.0285 18.1629 45.6298 17.9942C45.2363 17.8256 44.7533 17.6723 44.1809 17.5343L42.4713 17.1049C41.1476 16.783 40.1024 16.2795 39.3358 15.5947C38.5692 14.9098 38.1884 13.9873 38.1935 12.8272C38.1884 11.8765 38.4414 11.046 38.9525 10.3356C39.4687 9.62519 40.1765 9.07066 41.0761 8.67202C41.9756 8.27337 42.9977 8.07404 44.1426 8.07404C45.3079 8.07404 46.3249 8.27337 47.1938 8.67202C48.0677 9.07066 48.7475 9.62519 49.233 10.3356C49.7185 11.046 49.969 11.8689 49.9843 12.8042H46.8028Z" fill="black"/>
<path d="M55.7283 24.2116C54.977 24.2116 54.3075 24.0813 53.7197 23.8206C53.132 23.5549 52.6669 23.1639 52.3244 22.6477C51.9871 22.1264 51.8185 21.4773 51.8185 20.7004C51.8185 20.0463 51.9386 19.4968 52.1788 19.0522C52.419 18.6075 52.7461 18.2498 53.1601 17.9789C53.574 17.708 54.0442 17.5036 54.5707 17.3656C55.1022 17.2276 55.6593 17.1305 56.2419 17.0743C56.9268 17.0027 57.4787 16.9363 57.8978 16.875C58.3169 16.8085 58.621 16.7114 58.8101 16.5836C58.9992 16.4559 59.0938 16.2668 59.0938 16.0163V15.9703C59.0938 15.4848 58.9405 15.1092 58.6338 14.8434C58.3323 14.5776 57.9029 14.4447 57.3459 14.4447C56.7581 14.4447 56.2905 14.5751 55.9429 14.8357C55.5954 15.0913 55.3654 15.4133 55.253 15.8017L52.2324 15.5564C52.3858 14.8408 52.6873 14.2224 53.1371 13.7011C53.5868 13.1747 54.1669 12.7709 54.8773 12.4898C55.5928 12.2036 56.4208 12.0605 57.3612 12.0605C58.0154 12.0605 58.6415 12.1372 59.2394 12.2905C59.8425 12.4438 60.3766 12.6815 60.8417 13.0035C61.3119 13.3255 61.6824 13.7394 61.9533 14.2454C62.2242 14.7463 62.3596 15.3468 62.3596 16.047V23.9893H59.2624V22.3564H59.1704C58.9813 22.7244 58.7284 23.0489 58.4115 23.33C58.0946 23.606 57.7138 23.8232 57.2692 23.9816C56.8246 24.1349 56.3109 24.2116 55.7283 24.2116ZM56.6636 21.9577C57.144 21.9577 57.5682 21.8632 57.9362 21.6741C58.3042 21.4799 58.5929 21.2192 58.8025 20.8921C59.012 20.565 59.1168 20.1945 59.1168 19.7805V18.5309C59.0146 18.5973 58.874 18.6587 58.6951 18.7149C58.5214 18.766 58.3246 18.8145 58.1048 18.8605C57.8851 18.9014 57.6653 18.9398 57.4455 18.9755C57.2258 19.0062 57.0264 19.0343 56.8476 19.0599C56.4642 19.1161 56.1295 19.2055 55.8433 19.3282C55.5571 19.4508 55.3347 19.6169 55.1763 19.8265C55.0179 20.0309 54.9386 20.2865 54.9386 20.5931C54.9386 21.0378 55.0996 21.3776 55.4216 21.6127C55.7487 21.8427 56.1627 21.9577 56.6636 21.9577Z" fill="black"/>
<path d="M71.2257 12.2138V14.6671H63.9581V12.2138H71.2257ZM65.6216 23.9893V11.3629C65.6216 10.5094 65.7877 9.80152 66.1199 9.23932C66.4573 8.67713 66.9172 8.25548 67.4999 7.97438C68.0825 7.69328 68.7444 7.55273 69.4855 7.55273C69.9863 7.55273 70.4437 7.59107 70.8577 7.66773C71.2768 7.74439 71.5886 7.81339 71.793 7.87472L71.2104 10.3279C71.0826 10.2871 70.9242 10.2487 70.7351 10.2129C70.5511 10.1772 70.362 10.1593 70.1678 10.1593C69.6873 10.1593 69.3526 10.2717 69.1635 10.4966C68.9744 10.7164 68.8798 11.0256 68.8798 11.4242V23.9893H65.6216Z" fill="black"/>
<path d="M73.2209 23.9893V12.2138H76.387V14.2684H76.5097C76.7244 13.5376 77.0847 12.9856 77.5907 12.6125C78.0966 12.2343 78.6793 12.0452 79.3386 12.0452C79.5021 12.0452 79.6784 12.0554 79.8675 12.0759C80.0567 12.0963 80.2228 12.1244 80.3659 12.1602V15.058C80.2125 15.012 80.0004 14.9712 79.7296 14.9354C79.4587 14.8996 79.2108 14.8817 78.9859 14.8817C78.5055 14.8817 78.0762 14.9865 77.698 15.196C77.3249 15.4005 77.0285 15.6867 76.8087 16.0547C76.594 16.4226 76.4867 16.8469 76.4867 17.3273V23.9893H73.2209Z" fill="black"/>
<path d="M86.8726 24.2193C85.6614 24.2193 84.6187 23.974 83.7448 23.4833C82.8759 22.9876 82.2064 22.2874 81.7362 21.3827C81.266 20.473 81.0309 19.3972 81.0309 18.1552C81.0309 16.944 81.266 15.8809 81.7362 14.9661C82.2064 14.0512 82.8683 13.3382 83.7218 12.8272C84.5804 12.3161 85.5872 12.0605 86.7423 12.0605C87.5192 12.0605 88.2423 12.1857 88.9119 12.4362C89.5865 12.6815 90.1743 13.052 90.6751 13.5478C91.1811 14.0435 91.5746 14.6671 91.8557 15.4184C92.1368 16.1645 92.2774 17.0385 92.2774 18.0402V18.9372H82.3342V16.9133H89.2032C89.2032 16.4431 89.101 16.0266 88.8965 15.6637C88.6921 15.3008 88.4084 15.0172 88.0456 14.8127C87.6878 14.6032 87.2713 14.4984 86.796 14.4984C86.3002 14.4984 85.8607 14.6134 85.4774 14.8434C85.0992 15.0683 84.8027 15.3724 84.5881 15.7557C84.3734 16.1339 84.2635 16.5555 84.2584 17.0206V18.9449C84.2584 19.5275 84.3658 20.0309 84.5804 20.4551C84.8002 20.8793 85.1094 21.2064 85.508 21.4364C85.9067 21.6664 86.3794 21.7814 86.9263 21.7814C87.2892 21.7814 87.6214 21.7303 87.9229 21.6281C88.2245 21.5259 88.4826 21.3725 88.6972 21.1681C88.9119 20.9637 89.0754 20.7132 89.1879 20.4168L92.2084 20.6161C92.0551 21.3419 91.7407 21.9756 91.2654 22.5174C90.7952 23.054 90.187 23.4731 89.4408 23.7746C88.6998 24.0711 87.8437 24.2193 86.8726 24.2193Z" fill="black"/>
<path d="M97.6745 17.1816V23.9893H94.4086V12.2138H97.5211V14.2914H97.6591C97.9198 13.6066 98.3568 13.0648 98.9701 12.6662C99.5834 12.2624 100.327 12.0605 101.201 12.0605C102.019 12.0605 102.732 12.2394 103.34 12.5972C103.948 12.9549 104.421 13.466 104.758 14.1304C105.095 14.7897 105.264 15.5768 105.264 16.4916V23.9893H101.998V17.0743C102.003 16.3537 101.819 15.7915 101.446 15.3877C101.073 14.9788 100.56 14.7744 99.9053 14.7744C99.4658 14.7744 99.0774 14.8689 98.7401 15.058C98.4079 15.2471 98.1472 15.5231 97.9581 15.886C97.7741 16.2438 97.6796 16.6756 97.6745 17.1816Z" fill="black"/>
<path d="M107.777 23.9893V22.042L113.542 14.9047V14.8204H107.976V12.2138H117.475V14.3374L112.062 21.2984V21.3827H117.674V23.9893H107.777Z" fill="black"/>
</svg>
