<svg width="48" height="48" viewBox="0 0 48 48" fill="none" xmlns="http://www.w3.org/2000/svg">
<path d="M10 30C8.12 30 6.38 30.66 5 31.76C3.16 33.22 2 35.48 2 38C2 42.42 5.58 46 10 46C12.02 46 13.86 45.24 15.28 44C16.94 42.54 18 40.4 18 38C18 33.58 14.42 30 10 30ZM12 38.5C12 39.02 11.72 39.52 11.28 39.78L8.78 41.28C8.54 41.42 8.28 41.5 8 41.5C7.5 41.5 7 41.24 6.72 40.78C6.3 40.06 6.51999 39.14 7.23999 38.72L9.01999 37.66V35.5C9.01999 34.68 9.69999 34 10.52 34C11.34 34 12.02 34.68 12.02 35.5V38.5H12Z" fill="#FFB000"/>
<path opacity="0.4" d="M38.96 25.9H43V23.02C43 18.88 39.62 15.5 35.48 15.5H12.52C8.37999 15.5 5 18.88 5 23.02V31.76C6.38 30.66 8.12 30 10 30C14.42 30 18 33.58 18 38C18 39.5 17.58 40.92 16.84 42.12C16.42 42.84 15.88 43.48 15.26 44H35.48C39.62 44 43 40.62 43 36.48V34.1H39.2C37.04 34.1 35.06 32.52 34.88 30.36C34.76 29.1 35.24 27.92 36.08 27.1C36.82 26.34 37.84 25.9 38.96 25.9Z" fill="#FFB000"/>
<path d="M29.7 7.90025V15.5002H12.52C8.37999 15.5002 5 18.8802 5 23.0202V15.6803C5 13.3003 6.45999 11.1802 8.67999 10.3402L24.56 4.34019C27.04 3.42019 29.7 5.24025 29.7 7.90025Z" fill="#FFB000"/>
<path d="M45.1201 27.9403V32.0604C45.1201 33.1604 44.2401 34.0603 43.1201 34.1003H39.2001C37.0401 34.1003 35.0601 32.5204 34.8801 30.3604C34.7601 29.1004 35.24 27.9203 36.08 27.1003C36.82 26.3403 37.8401 25.9004 38.9601 25.9004H43.1201C44.2401 25.9404 45.1201 26.8403 45.1201 27.9403Z" fill="#FFB000"/>
<path d="M28 25.5H14C13.18 25.5 12.5 24.82 12.5 24C12.5 23.18 13.18 22.5 14 22.5H28C28.82 22.5 29.5 23.18 29.5 24C29.5 24.82 28.82 25.5 28 25.5Z" fill="#FFB000"/>
</svg>
