<svg width="48" height="48" viewBox="0 0 48 48" fill="none" xmlns="http://www.w3.org/2000/svg">
<g clip-path="url(#clip0_11182_997)">
<path fill-rule="evenodd" clip-rule="evenodd" d="M48 24C48 37.2549 37.2549 48 24 48C10.7451 48 0 37.2549 0 24C0 10.7451 10.7451 0 24 0C37.2549 0 48 10.7451 48 24ZM14.7426 14.742C14.7426 13.9236 15.0677 13.1387 15.6463 12.56C16.225 11.9814 17.0099 11.6562 17.8283 11.6562H30.1711C30.9895 11.6562 31.7744 11.9814 32.3531 12.56C32.9317 13.1387 33.2569 13.9236 33.2569 14.742V21.2829C32.5299 21.0436 31.7488 20.9134 30.9372 20.9134C29.2283 20.9134 27.6526 21.4941 26.4363 22.4562H25.5426V23.3054C24.5797 24.4055 23.9997 25.8049 23.9997 27.3299C23.9997 28.3235 24.212 29.2775 24.5953 30.1705H22.4569C22.0477 30.1705 21.6552 30.3331 21.3659 30.6224C21.0765 30.9118 20.914 31.3042 20.914 31.7134V34.7991C20.914 35.2083 20.7514 35.6007 20.4621 35.8901C20.1728 36.1794 19.7803 36.342 19.3711 36.342H14.7426C14.3334 36.342 13.9409 36.1794 13.6516 35.8901C13.3623 35.6007 13.1997 35.2083 13.1997 34.7991C13.1997 34.3899 13.3623 33.9975 13.6516 33.7081C13.9409 33.4188 14.3334 33.2562 14.7426 33.2562V14.742ZM19.3711 16.2848H22.4569V19.3705H19.3711V16.2848ZM22.4569 22.4562H19.3711V25.542H22.4569V22.4562ZM25.5426 16.2848H28.6283V19.3705H25.5426V16.2848ZM31.5376 36.151C32.6051 35.4977 33.5993 34.7343 34.4976 33.882C34.6926 34.1459 34.7997 34.467 34.7997 34.7991C34.7997 35.2083 34.6372 35.6007 34.3478 35.8901C34.0585 36.1794 33.666 36.342 33.2569 36.342H30.9471C31.1441 36.3417 31.3359 36.2757 31.5376 36.151ZM30.9451 36.342C30.7551 36.3418 30.5602 36.2803 30.3467 36.151C29.1541 35.4253 28.0565 34.5637 27.0854 33.5953V34.7991C27.0854 35.2083 27.248 35.6007 27.5373 35.8901C27.8267 36.1794 28.2191 36.342 28.6283 36.342H30.9451ZM30.9384 22.4562C27.9846 22.4562 25.5426 24.8182 25.5426 27.7405C25.5426 29.213 26.0775 30.5802 26.9596 31.7389C27.9237 33.0171 29.1223 34.1307 30.4791 35.0048C30.818 35.2221 31.0966 35.2069 31.4054 35.0048C32.7545 34.1307 33.9531 33.0171 34.9255 31.7389C35.807 30.5802 36.3426 29.213 36.3426 27.7405C36.3426 24.8182 33.9006 22.4562 30.9384 22.4562ZM30.9389 29.654C29.9594 29.654 29.1605 28.884 29.1605 27.9051C29.1605 26.9337 29.9594 26.1263 30.9389 26.1263C31.919 26.1263 32.7255 26.9337 32.7255 27.9051C32.7255 28.884 31.919 29.654 30.9389 29.654Z" fill="url(#paint0_linear_11182_997)"/>
</g>
<defs>
<linearGradient id="paint0_linear_11182_997" x1="24" y1="0" x2="24" y2="48" gradientUnits="userSpaceOnUse">
<stop stop-color="#38EF7D"/>
<stop offset="1" stop-color="#11998E"/>
</linearGradient>
<clipPath id="clip0_11182_997">
<rect width="48" height="48" fill="white"/>
</clipPath>
</defs>
</svg>
