<svg width="48" height="48" viewBox="0 0 48 48" fill="none" xmlns="http://www.w3.org/2000/svg">
<path fill-rule="evenodd" clip-rule="evenodd" d="M24 48C37.2548 48 48 37.2548 48 24C48 10.7452 37.2548 0 24 0C10.7452 0 0 10.7452 0 24C0 37.2548 10.7452 48 24 48ZM13.5631 13.0698L12.5769 12C9.32963 14.9933 9.12354 20.057 12.1168 23.3043L13.1867 22.3182C10.737 19.6606 10.9055 15.5196 13.5631 13.0698ZM15.5354 15.2095L14.5493 14.1397C12.4814 16.0458 12.3504 19.2642 14.2565 21.332L15.3264 20.3458C13.9673 18.8715 14.0611 16.5685 15.5354 15.2095ZM16.6947 13.7926C16.6947 12.8026 17.4973 12 18.4873 12H27.6989C28.6889 12 29.4914 12.8026 29.4914 13.7926V26.888H25.1257C24.5646 26.4511 23.8592 26.1909 23.0931 26.1909C21.2644 26.1909 19.7819 27.6734 19.7819 29.5021C19.7819 31.3308 21.2644 32.8133 23.0931 32.8133C23.8592 32.8133 24.5646 32.5531 25.1257 32.1162H29.4914V34.2075C29.4914 35.1975 28.6889 36 27.6989 36H18.4873C17.4973 36 16.6947 35.1975 16.6947 34.2075V18.9034C16.3081 19.0026 15.8807 18.8915 15.5912 18.5774C15.1717 18.1223 15.2005 17.4132 15.6557 16.9936C15.9458 16.7262 16.339 16.641 16.6947 16.7322V13.7926ZM19.7819 16.0332C20.1944 16.0332 20.5288 15.6988 20.5288 15.2863C20.5288 14.8738 20.1944 14.5394 19.7819 14.5394C19.3694 14.5394 19.035 14.8738 19.035 15.2863C19.035 15.6988 19.3694 16.0332 19.7819 16.0332ZM23.8151 15.2863C23.8151 15.6988 23.4807 16.0332 23.0682 16.0332C22.6557 16.0332 22.3213 15.6988 22.3213 15.2863C22.3213 14.8738 22.6557 14.5394 23.0682 14.5394C23.4807 14.5394 23.8151 14.8738 23.8151 15.2863ZM26.3545 16.0332C26.767 16.0332 27.1014 15.6988 27.1014 15.2863C27.1014 14.8738 26.767 14.5394 26.3545 14.5394C25.942 14.5394 25.6076 14.8738 25.6076 15.2863C25.6076 15.6988 25.942 16.0332 26.3545 16.0332ZM20.5288 18.1743C20.5288 18.5868 20.1944 18.9212 19.7819 18.9212C19.3694 18.9212 19.035 18.5868 19.035 18.1743C19.035 17.7618 19.3694 17.4274 19.7819 17.4274C20.1944 17.4274 20.5288 17.7618 20.5288 18.1743ZM23.0682 18.9212C23.4807 18.9212 23.8151 18.5868 23.8151 18.1743C23.8151 17.7618 23.4807 17.4274 23.0682 17.4274C22.6557 17.4274 22.3213 17.7618 22.3213 18.1743C22.3213 18.5868 22.6557 18.9212 23.0682 18.9212ZM27.1014 18.1743C27.1014 18.5868 26.767 18.9212 26.3545 18.9212C25.942 18.9212 25.6076 18.5868 25.6076 18.1743C25.6076 17.7618 25.942 17.4274 26.3545 17.4274C26.767 17.4274 27.1014 17.7618 27.1014 18.1743ZM19.7819 21.8091C20.1944 21.8091 20.5288 21.4748 20.5288 21.0623C20.5288 20.6498 20.1944 20.3154 19.7819 20.3154C19.3694 20.3154 19.035 20.6498 19.035 21.0623C19.035 21.4748 19.3694 21.8091 19.7819 21.8091ZM23.8151 21.0623C23.8151 21.4748 23.4807 21.8091 23.0682 21.8091C22.6557 21.8091 22.3213 21.4748 22.3213 21.0623C22.3213 20.6498 22.6557 20.3154 23.0682 20.3154C23.4807 20.3154 23.8151 20.6498 23.8151 21.0623ZM26.3545 21.8091C26.767 21.8091 27.1014 21.4748 27.1014 21.0623C27.1014 20.6498 26.767 20.3154 26.3545 20.3154C25.942 20.3154 25.6076 20.6498 25.6076 21.0623C25.6076 21.4748 25.942 21.8091 26.3545 21.8091ZM23.8151 24C23.8151 24.4125 23.4807 24.7469 23.0682 24.7469C22.6557 24.7469 22.3213 24.4125 22.3213 24C22.3213 23.5875 22.6557 23.2531 23.0682 23.2531C23.4807 23.2531 23.8151 23.5875 23.8151 24ZM23.0931 31.4689C23.5953 31.4689 24.0535 31.2807 24.4011 30.971H36.3628C37.1603 30.971 37.8068 30.3245 37.8068 29.527C37.8068 28.7295 37.1603 28.083 36.3628 28.083H24.4549C24.1015 27.7438 23.6216 27.5353 23.0931 27.5353C22.0068 27.5353 21.1263 28.4159 21.1263 29.5021C21.1263 30.5883 22.0068 31.4689 23.0931 31.4689Z" fill="url(#paint0_linear_11182_979)"/>
<defs>
<linearGradient id="paint0_linear_11182_979" x1="24" y1="0" x2="24" y2="48" gradientUnits="userSpaceOnUse">
<stop offset="0.307292" stop-color="#41295A"/>
<stop offset="1" stop-color="#2F0743"/>
</linearGradient>
</defs>
</svg>
