<svg width="36" height="36" viewBox="0 0 36 36" fill="none" xmlns="http://www.w3.org/2000/svg">
<circle cx="18" cy="18" r="18" fill="#ECEBFF"/>
<path d="M28.5 12.5V14.92C28.5 16.5 27.5 17.5 25.92 17.5H22.5V10.51C22.5 9.4 23.41 8.5 24.52 8.5C25.61 8.51 26.61 8.95 27.33 9.67C28.05 10.4 28.5 11.4 28.5 12.5Z" fill="#6C63FF"/>
<path opacity="0.4" d="M8.5 13.5V27.5C8.5 28.33 9.44001 28.8 10.1 28.3L11.81 27.02C12.21 26.72 12.77 26.76 13.13 27.12L14.79 28.79C15.18 29.18 15.82 29.18 16.21 28.79L17.89 27.11C18.24 26.76 18.8 26.72 19.19 27.02L20.9 28.3C21.56 28.79 22.5 28.32 22.5 27.5V10.5C22.5 9.4 23.4 8.5 24.5 8.5H13.5H12.5C9.5 8.5 8.5 10.29 8.5 12.5V13.5Z" fill="#6C63FF"/>
<path d="M18.5 16.25H12.5C12.09 16.25 11.75 15.91 11.75 15.5C11.75 15.09 12.09 14.75 12.5 14.75H18.5C18.91 14.75 19.25 15.09 19.25 15.5C19.25 15.91 18.91 16.25 18.5 16.25Z" fill="#6C63FF"/>
<path d="M17.75 20.25H13.25C12.84 20.25 12.5 19.91 12.5 19.5C12.5 19.09 12.84 18.75 13.25 18.75H17.75C18.16 18.75 18.5 19.09 18.5 19.5C18.5 19.91 18.16 20.25 17.75 20.25Z" fill="#6C63FF"/>
</svg>
