<svg width="40" height="40" viewBox="0 0 40 40" fill="none" xmlns="http://www.w3.org/2000/svg">
<path fill-rule="evenodd" clip-rule="evenodd" d="M20 40C31.0457 40 40 31.0457 40 20C40 8.9543 31.0457 0 20 0C8.9543 0 0 8.9543 0 20C0 31.0457 8.9543 40 20 40ZM13.7218 11.2218C14.503 10.4407 15.562 10.0013 16.6667 9.99999H23.3333C24.438 10.0013 25.497 10.4407 26.2781 11.2218C27.0593 12.003 27.4987 13.062 27.5 14.1667V29.1667C27.4996 29.318 27.458 29.4664 27.3797 29.5959C27.3013 29.7255 27.1892 29.8312 27.0553 29.9018C26.9214 29.9724 26.7708 30.0052 26.6197 29.9966C26.4685 29.9881 26.3226 29.9385 26.1975 29.8533L24.4475 28.6558L22.6975 29.8542C22.5588 29.9493 22.3945 30.0002 22.2262 30.0002C22.058 30.0002 21.8937 29.9493 21.755 29.8542L20.005 28.655L18.255 29.8542C18.1163 29.9491 17.9522 29.9999 17.7842 29.9999C17.6161 29.9999 17.452 29.9491 17.3133 29.8542L15.5583 28.655L13.8033 29.8542C13.6782 29.9396 13.5321 29.9894 13.3807 29.998C13.2294 30.0066 13.0786 29.9738 12.9445 29.9031C12.8105 29.8324 12.6982 29.7264 12.6199 29.5967C12.5416 29.4669 12.5001 29.3182 12.5 29.1667V14.1667C12.5013 13.062 12.9407 12.003 13.7218 11.2218ZM16.6667 21.6667H21.6667C21.8877 21.6667 22.0996 21.5789 22.2559 21.4226C22.4122 21.2663 22.5 21.0543 22.5 20.8333C22.5 20.6123 22.4122 20.4004 22.2559 20.2441C22.0996 20.0878 21.8877 20 21.6667 20H16.6667C16.4456 20 16.2337 20.0878 16.0774 20.2441C15.9211 20.4004 15.8333 20.6123 15.8333 20.8333C15.8333 21.0543 15.9211 21.2663 16.0774 21.4226C16.2337 21.5789 16.4456 21.6667 16.6667 21.6667ZM23.9226 18.0892C24.0789 17.933 24.1667 17.721 24.1667 17.5C24.1667 17.279 24.0789 17.067 23.9226 16.9107C23.7663 16.7545 23.5543 16.6667 23.3333 16.6667H16.6667C16.4456 16.6667 16.2337 16.7545 16.0774 16.9107C15.9211 17.067 15.8333 17.279 15.8333 17.5C15.8333 17.721 15.9211 17.933 16.0774 18.0892C16.2337 18.2455 16.4456 18.3333 16.6667 18.3333H23.3333C23.5543 18.3333 23.7663 18.2455 23.9226 18.0892Z" fill="#8E24AA"/>
</svg>
