<svg width="48" height="48" viewBox="0 0 48 48" fill="none" xmlns="http://www.w3.org/2000/svg">
<path fill-rule="evenodd" clip-rule="evenodd" d="M24 48C37.2548 48 48 37.2548 48 24C48 10.7452 37.2548 0 24 0C10.7452 0 0 10.7452 0 24C0 37.2548 10.7452 48 24 48ZM23.9235 24.6999C27.4277 24.6999 30.2375 21.8738 30.2375 18.3493C30.2375 14.8234 27.4277 12 23.9235 12C20.4194 12 17.6096 14.8234 17.6096 18.3493C17.6096 21.8738 20.4194 24.6999 23.9235 24.6999ZM14.3821 31.9203C14.3821 35.1841 18.7768 36 23.9235 36C29.0985 36 33.465 35.1543 33.465 31.8905C33.465 28.6254 29.0703 27.8094 23.9235 27.8094C18.7486 27.8094 14.3821 28.6551 14.3821 31.9203ZM31.4596 23.3258C32.3997 21.9343 32.9356 20.2605 32.9356 18.4638C32.9356 16.5888 32.35 14.8407 31.3333 13.4074C31.3011 13.3628 31.2769 13.2939 31.3091 13.2426C31.336 13.2007 31.3857 13.1791 31.4327 13.1683C31.7752 13.098 32.1271 13.0588 32.4951 13.0588C35.8797 13.0588 38.5377 16.2619 37.6325 19.8296C37.0214 22.2315 34.8093 23.8269 32.3447 23.7621C32.0975 23.7554 31.8544 23.7324 31.6194 23.6919C31.4488 23.6621 31.3629 23.469 31.4596 23.3258ZM40.2139 28.225C39.7626 27.2591 38.6734 26.5944 37.0173 26.2689C36.2356 26.077 34.1203 25.8068 32.1526 25.8433C32.1231 25.8474 32.1069 25.869 32.1043 25.8825C32.1002 25.9014 32.1083 25.9325 32.1472 25.9527C33.0565 26.4053 36.5714 28.3736 36.1295 32.5249C36.1107 32.7046 36.2544 32.8599 36.4331 32.8329C37.298 32.7086 39.5236 32.2277 40.2139 30.7296C40.5954 29.9379 40.5954 29.018 40.2139 28.225ZM16.3809 23.6917C16.1446 23.7336 15.9028 23.7552 15.6557 23.762C13.1911 23.8268 10.979 22.2314 10.3679 19.8295C9.46127 16.2617 12.1193 13.0587 15.5039 13.0587C15.8719 13.0587 16.2238 13.0979 16.5676 13.1681C16.6133 13.1789 16.6643 13.2019 16.6912 13.2424C16.7221 13.2938 16.6993 13.3627 16.667 13.4072C15.6503 14.8406 15.0647 16.5886 15.0647 18.4637C15.0647 20.2604 15.6006 21.9342 16.5408 23.3256C16.6375 23.4688 16.5515 23.662 16.3809 23.6917ZM15.8538 25.9533C15.8914 25.9317 15.8994 25.9019 15.8954 25.8817C15.8927 25.8695 15.8779 25.8479 15.8484 25.8439C13.8794 25.8074 11.7654 26.0776 10.9823 26.268C9.32629 26.595 8.23837 27.2596 7.78709 28.2255C7.4043 29.0185 7.4043 29.9371 7.78709 30.7301C8.47744 32.2283 10.703 32.7092 11.5679 32.8335C11.7466 32.8591 11.8889 32.7051 11.8701 32.5241C11.4282 28.3741 14.9431 26.4058 15.8538 25.9533Z" fill="url(#paint0_linear_11182_985)"/>
<defs>
<linearGradient id="paint0_linear_11182_985" x1="24.2087" y1="11.7073" x2="22.5697" y2="47.9353" gradientUnits="userSpaceOnUse">
<stop stop-color="#F16529"/>
<stop offset="1" stop-color="#E44D26"/>
</linearGradient>
</defs>
</svg>
