<svg width="107" height="16" viewBox="0 0 107 16" fill="none" xmlns="http://www.w3.org/2000/svg">
<g clip-path="url(#clip0_10947_2474)">
<path d="M41.5207 9.5216V8.18446V5.51297H37.3977H34.6485V4.17582H41.5207V1.50293H34.6485H30.5254V4.17582V5.51297V8.18446H34.6485H37.3977V9.5216H30.5254V12.1945H37.3977H41.5207V9.5216Z" fill="black"/>
<path d="M29.151 1.50293H26.4019V12.1931H29.151V1.50293Z" fill="black"/>
<path d="M14.0322 1.50293V4.17582H22.2784V5.51297H16.78H14.0322V8.18446V12.1945H16.78V8.22515L20.9045 12.1945H25.0276L20.7256 8.18446H22.2784H25.0276V5.51297V4.17582V1.50293H22.2784H14.0322Z" fill="black"/>
<path d="M5.78467 8.18443H8.52665V5.51855H5.78467V8.18443ZM6.47305 6.18081H7.84693V7.51656H6.47305V6.18081Z" fill="black"/>
<path d="M4.41229 1.50293H2.00656C1.91564 1.5036 1.82861 1.53886 1.76411 1.60115C1.73201 1.63224 1.70657 1.6692 1.68923 1.70989C1.67189 1.75059 1.66301 1.79422 1.66309 1.83827V11.8592C1.66301 11.9032 1.67189 11.9468 1.68923 11.9875C1.70657 12.0282 1.73201 12.0652 1.76411 12.0963C1.82876 12.1582 1.91582 12.1929 2.00656 12.1931H8.53536V9.52722H4.41229V1.50293Z" fill="black"/>
<path d="M12.3135 1.50293H5.78467V4.17582H9.90919V8.18446H12.6512V1.83827C12.652 1.74999 12.6173 1.66488 12.5545 1.60115C12.4901 1.53956 12.4038 1.5044 12.3135 1.50293V1.50293Z" fill="black"/>
<path d="M12.6598 9.52148H9.91064V15.5351H12.6598V9.52148Z" fill="black"/>
<path d="M5.4984 0H0.34347C0.252493 0.000369322 0.16535 0.0356704 0.10102 0.0982156C0.0366887 0.160761 0.000379866 0.245484 0 0.333936L0 5.34578H0.686939V0.996195C0.688821 0.908722 0.725792 0.825427 0.789962 0.764087C0.854132 0.702747 0.940419 0.668219 1.03041 0.667872H5.50417L5.4984 0Z" fill="black"/>
<path d="M42.6068 8.68457V13.0342C42.6064 13.1226 42.5701 13.2073 42.5058 13.2699C42.4414 13.3324 42.3543 13.3677 42.2633 13.3681H37.7896V14.0304H42.9445C42.99 14.0309 43.0352 14.0227 43.0775 14.0062C43.1197 13.9897 43.1582 13.9652 43.1907 13.9341C43.2231 13.9031 43.249 13.8661 43.2666 13.8253C43.2843 13.7845 43.2935 13.7407 43.2937 13.6964V8.68457H42.6068Z" fill="black"/>
</g>
<path d="M55.0799 6.36621C54.9665 6.50621 54.8282 6.61288 54.6649 6.68621C54.5049 6.75954 54.3282 6.79621 54.1349 6.79621C53.8749 6.79621 53.6399 6.73954 53.4299 6.62621C53.2199 6.51621 52.9799 6.31954 52.7099 6.03621C52.3932 5.99621 52.1099 5.89454 51.8599 5.73121C51.6132 5.56788 51.4199 5.35788 51.2799 5.10121C51.1432 4.84121 51.0749 4.55454 51.0749 4.24121C51.0749 3.89788 51.1565 3.58954 51.3199 3.31621C51.4865 3.03954 51.7149 2.82288 52.0049 2.66621C52.2982 2.50954 52.6265 2.43121 52.9899 2.43121C53.3532 2.43121 53.6799 2.50954 53.9699 2.66621C54.2599 2.82288 54.4882 3.03954 54.6549 3.31621C54.8215 3.58954 54.9049 3.89788 54.9049 4.24121C54.9049 4.64788 54.7899 5.00454 54.5599 5.31121C54.3332 5.61788 54.0315 5.83121 53.6549 5.95121C53.7382 6.03788 53.8182 6.09954 53.8949 6.13621C53.9749 6.17621 54.0599 6.19621 54.1499 6.19621C54.3665 6.19621 54.5565 6.10954 54.7199 5.93621L55.0799 6.36621ZM51.8949 4.24121C51.8949 4.45788 51.9415 4.65121 52.0349 4.82121C52.1315 4.99121 52.2632 5.12454 52.4299 5.22121C52.5965 5.31454 52.7832 5.36121 52.9899 5.36121C53.1965 5.36121 53.3832 5.31454 53.5499 5.22121C53.7165 5.12454 53.8465 4.99121 53.9399 4.82121C54.0365 4.65121 54.0849 4.45788 54.0849 4.24121C54.0849 4.02454 54.0365 3.83121 53.9399 3.66121C53.8465 3.49121 53.7165 3.35954 53.5499 3.26621C53.3832 3.16954 53.1965 3.12121 52.9899 3.12121C52.7832 3.12121 52.5965 3.16954 52.4299 3.26621C52.2632 3.35954 52.1315 3.49121 52.0349 3.66121C51.9415 3.83121 51.8949 4.02454 51.8949 4.24121ZM57.6436 5.99121L56.9686 5.01621H56.9286H56.2236V5.99121H55.4136V2.49121H56.9286C57.2386 2.49121 57.507 2.54288 57.7336 2.64621C57.9636 2.74954 58.1403 2.89621 58.2636 3.08621C58.387 3.27621 58.4486 3.50121 58.4486 3.76121C58.4486 4.02121 58.3853 4.24621 58.2586 4.43621C58.1353 4.62288 57.9586 4.76621 57.7286 4.86621L58.5136 5.99121H57.6436ZM57.6286 3.76121C57.6286 3.56454 57.5653 3.41454 57.4386 3.31121C57.312 3.20454 57.127 3.15121 56.8836 3.15121H56.2236V4.37121H56.8836C57.127 4.37121 57.312 4.31788 57.4386 4.21121C57.5653 4.10454 57.6286 3.95454 57.6286 3.76121ZM61.9814 6.05121C61.6247 6.05121 61.3014 5.97454 61.0114 5.82121C60.7247 5.66454 60.4981 5.44954 60.3314 5.17621C60.1681 4.89954 60.0864 4.58788 60.0864 4.24121C60.0864 3.89454 60.1681 3.58454 60.3314 3.31121C60.4981 3.03454 60.7247 2.81954 61.0114 2.66621C61.3014 2.50954 61.6264 2.43121 61.9864 2.43121C62.2897 2.43121 62.5631 2.48454 62.8064 2.59121C63.0531 2.69788 63.2597 2.85121 63.4264 3.05121L62.9064 3.53121C62.6697 3.25788 62.3764 3.12121 62.0264 3.12121C61.8097 3.12121 61.6164 3.16954 61.4464 3.26621C61.2764 3.35954 61.1431 3.49121 61.0464 3.66121C60.9531 3.83121 60.9064 4.02454 60.9064 4.24121C60.9064 4.45788 60.9531 4.65121 61.0464 4.82121C61.1431 4.99121 61.2764 5.12454 61.4464 5.22121C61.6164 5.31454 61.8097 5.36121 62.0264 5.36121C62.3764 5.36121 62.6697 5.22288 62.9064 4.94621L63.4264 5.42621C63.2597 5.62954 63.0531 5.78454 62.8064 5.89121C62.5597 5.99788 62.2847 6.05121 61.9814 6.05121ZM65.0056 6.03121C64.7223 6.03121 64.4673 5.97288 64.2406 5.85621C64.0173 5.73621 63.8423 5.57121 63.7156 5.36121C63.589 5.15121 63.5256 4.91288 63.5256 4.64621C63.5256 4.37954 63.589 4.14121 63.7156 3.93121C63.8423 3.72121 64.0173 3.55788 64.2406 3.44121C64.4673 3.32121 64.7223 3.26121 65.0056 3.26121C65.289 3.26121 65.5423 3.32121 65.7656 3.44121C65.989 3.55788 66.164 3.72121 66.2906 3.93121C66.4173 4.14121 66.4806 4.37954 66.4806 4.64621C66.4806 4.91288 66.4173 5.15121 66.2906 5.36121C66.164 5.57121 65.989 5.73621 65.7656 5.85621C65.5423 5.97288 65.289 6.03121 65.0056 6.03121ZM65.0056 5.39121C65.2056 5.39121 65.369 5.32454 65.4956 5.19121C65.6256 5.05454 65.6906 4.87288 65.6906 4.64621C65.6906 4.41954 65.6256 4.23954 65.4956 4.10621C65.369 3.96954 65.2056 3.90121 65.0056 3.90121C64.8056 3.90121 64.6406 3.96954 64.5106 4.10621C64.3806 4.23954 64.3156 4.41954 64.3156 4.64621C64.3156 4.87288 64.3806 5.05454 64.5106 5.19121C64.6406 5.32454 64.8056 5.39121 65.0056 5.39121ZM69.642 2.28121V5.99121H68.897V5.68121C68.7037 5.91454 68.4237 6.03121 68.057 6.03121C67.8037 6.03121 67.5737 5.97454 67.367 5.86121C67.1637 5.74788 67.0037 5.58621 66.887 5.37621C66.7703 5.16621 66.712 4.92288 66.712 4.64621C66.712 4.36954 66.7703 4.12621 66.887 3.91621C67.0037 3.70621 67.1637 3.54454 67.367 3.43121C67.5737 3.31788 67.8037 3.26121 68.057 3.26121C68.4003 3.26121 68.6687 3.36954 68.862 3.58621V2.28121H69.642ZM68.192 5.39121C68.3887 5.39121 68.552 5.32454 68.682 5.19121C68.812 5.05454 68.877 4.87288 68.877 4.64621C68.877 4.41954 68.812 4.23954 68.682 4.10621C68.552 3.96954 68.3887 3.90121 68.192 3.90121C67.992 3.90121 67.827 3.96954 67.697 4.10621C67.567 4.23954 67.502 4.41954 67.502 4.64621C67.502 4.87288 67.567 5.05454 67.697 5.19121C67.827 5.32454 67.992 5.39121 68.192 5.39121ZM72.8989 4.65621C72.8989 4.66621 72.8939 4.73621 72.8839 4.86621H70.8489C70.8856 5.03288 70.9722 5.16454 71.1089 5.26121C71.2456 5.35788 71.4156 5.40621 71.6189 5.40621C71.7589 5.40621 71.8822 5.38621 71.9889 5.34621C72.0989 5.30288 72.2006 5.23621 72.2939 5.14621L72.7089 5.59621C72.4556 5.88621 72.0856 6.03121 71.5989 6.03121C71.2956 6.03121 71.0272 5.97288 70.7939 5.85621C70.5606 5.73621 70.3806 5.57121 70.2539 5.36121C70.1272 5.15121 70.0639 4.91288 70.0639 4.64621C70.0639 4.38288 70.1256 4.14621 70.2489 3.93621C70.3756 3.72288 70.5472 3.55788 70.7639 3.44121C70.9839 3.32121 71.2289 3.26121 71.4989 3.26121C71.7622 3.26121 72.0006 3.31788 72.2139 3.43121C72.4272 3.54454 72.5939 3.70788 72.7139 3.92121C72.8372 4.13121 72.8989 4.37621 72.8989 4.65621ZM71.5039 3.85121C71.3272 3.85121 71.1789 3.90121 71.0589 4.00121C70.9389 4.10121 70.8656 4.23788 70.8389 4.41121H72.1639C72.1372 4.24121 72.0639 4.10621 71.9439 4.00621C71.8239 3.90288 71.6772 3.85121 71.5039 3.85121ZM75.8392 6.05121C75.5626 6.05121 75.2942 6.01454 75.0342 5.94121C74.7776 5.86454 74.5709 5.76621 74.4142 5.64621L74.6892 5.03621C74.8392 5.14621 75.0176 5.23454 75.2242 5.30121C75.4309 5.36788 75.6376 5.40121 75.8442 5.40121C76.0742 5.40121 76.2442 5.36788 76.3542 5.30121C76.4642 5.23121 76.5192 5.13954 76.5192 5.02621C76.5192 4.94288 76.4859 4.87454 76.4192 4.82121C76.3559 4.76454 76.2726 4.71954 76.1692 4.68621C76.0692 4.65288 75.9326 4.61621 75.7592 4.57621C75.4926 4.51288 75.2742 4.44954 75.1042 4.38621C74.9342 4.32288 74.7876 4.22121 74.6642 4.08121C74.5442 3.94121 74.4842 3.75454 74.4842 3.52121C74.4842 3.31788 74.5392 3.13454 74.6492 2.97121C74.7592 2.80454 74.9242 2.67288 75.1442 2.57621C75.3676 2.47954 75.6392 2.43121 75.9592 2.43121C76.1826 2.43121 76.4009 2.45788 76.6142 2.51121C76.8276 2.56454 77.0142 2.64121 77.1742 2.74121L76.9242 3.35621C76.6009 3.17288 76.2776 3.08121 75.9542 3.08121C75.7276 3.08121 75.5592 3.11788 75.4492 3.19121C75.3426 3.26454 75.2892 3.36121 75.2892 3.48121C75.2892 3.60121 75.3509 3.69121 75.4742 3.75121C75.6009 3.80788 75.7926 3.86454 76.0492 3.92121C76.3159 3.98454 76.5342 4.04788 76.7042 4.11121C76.8742 4.17454 77.0192 4.27454 77.1392 4.41121C77.2626 4.54788 77.3242 4.73288 77.3242 4.96621C77.3242 5.16621 77.2676 5.34954 77.1542 5.51621C77.0442 5.67954 76.8776 5.80954 76.6542 5.90621C76.4309 6.00288 76.1592 6.05121 75.8392 6.05121ZM79.4577 5.86121C79.381 5.91788 79.286 5.96121 79.1727 5.99121C79.0627 6.01788 78.946 6.03121 78.8227 6.03121C78.5027 6.03121 78.2544 5.94954 78.0777 5.78621C77.9044 5.62288 77.8177 5.38288 77.8177 5.06621V3.96121H77.4027V3.36121H77.8177V2.70621H78.5977V3.36121H79.2677V3.96121H78.5977V5.05621C78.5977 5.16954 78.626 5.25788 78.6827 5.32121C78.7427 5.38121 78.826 5.41121 78.9327 5.41121C79.056 5.41121 79.161 5.37788 79.2477 5.31121L79.4577 5.86121ZM80.8805 3.26121C81.2972 3.26121 81.6172 3.36121 81.8405 3.56121C82.0639 3.75788 82.1755 4.05621 82.1755 4.45621V5.99121H81.4455V5.65621C81.2989 5.90621 81.0255 6.03121 80.6255 6.03121C80.4189 6.03121 80.2389 5.99621 80.0855 5.92621C79.9355 5.85621 79.8205 5.75954 79.7405 5.63621C79.6605 5.51288 79.6205 5.37288 79.6205 5.21621C79.6205 4.96621 79.7139 4.76954 79.9005 4.62621C80.0905 4.48288 80.3822 4.41121 80.7755 4.41121H81.3955C81.3955 4.24121 81.3439 4.11121 81.2405 4.02121C81.1372 3.92788 80.9822 3.88121 80.7755 3.88121C80.6322 3.88121 80.4905 3.90454 80.3505 3.95121C80.2139 3.99454 80.0972 4.05454 80.0005 4.13121L79.7205 3.58621C79.8672 3.48288 80.0422 3.40288 80.2455 3.34621C80.4522 3.28954 80.6639 3.26121 80.8805 3.26121ZM80.8205 5.50621C80.9539 5.50621 81.0722 5.47621 81.1755 5.41621C81.2789 5.35288 81.3522 5.26121 81.3955 5.14121V4.86621H80.8605C80.5405 4.86621 80.3805 4.97121 80.3805 5.18121C80.3805 5.28121 80.4189 5.36121 80.4955 5.42121C80.5755 5.47788 80.6839 5.50621 80.8205 5.50621ZM84.4165 3.26121C84.7498 3.26121 85.0182 3.36121 85.2215 3.56121C85.4282 3.76121 85.5315 4.05788 85.5315 4.45121V5.99121H84.7515V4.57121C84.7515 4.35788 84.7048 4.19954 84.6115 4.09621C84.5182 3.98954 84.3832 3.93621 84.2065 3.93621C84.0098 3.93621 83.8532 3.99788 83.7365 4.12121C83.6198 4.24121 83.5615 4.42121 83.5615 4.66121V5.99121H82.7815V3.30121H83.5265V3.61621C83.6298 3.50288 83.7582 3.41621 83.9115 3.35621C84.0648 3.29288 84.2332 3.26121 84.4165 3.26121ZM88.9078 2.28121V5.99121H88.1628V5.68121C87.9695 5.91454 87.6895 6.03121 87.3228 6.03121C87.0695 6.03121 86.8395 5.97454 86.6328 5.86121C86.4295 5.74788 86.2695 5.58621 86.1528 5.37621C86.0361 5.16621 85.9778 4.92288 85.9778 4.64621C85.9778 4.36954 86.0361 4.12621 86.1528 3.91621C86.2695 3.70621 86.4295 3.54454 86.6328 3.43121C86.8395 3.31788 87.0695 3.26121 87.3228 3.26121C87.6661 3.26121 87.9345 3.36954 88.1278 3.58621V2.28121H88.9078ZM87.4578 5.39121C87.6545 5.39121 87.8178 5.32454 87.9478 5.19121C88.0778 5.05454 88.1428 4.87288 88.1428 4.64621C88.1428 4.41954 88.0778 4.23954 87.9478 4.10621C87.8178 3.96954 87.6545 3.90121 87.4578 3.90121C87.2578 3.90121 87.0928 3.96954 86.9628 4.10621C86.8328 4.23954 86.7678 4.41954 86.7678 4.64621C86.7678 4.87288 86.8328 5.05454 86.9628 5.19121C87.0928 5.32454 87.2578 5.39121 87.4578 5.39121ZM90.6147 3.26121C91.0314 3.26121 91.3514 3.36121 91.5747 3.56121C91.7981 3.75788 91.9097 4.05621 91.9097 4.45621V5.99121H91.1797V5.65621C91.0331 5.90621 90.7597 6.03121 90.3597 6.03121C90.1531 6.03121 89.9731 5.99621 89.8197 5.92621C89.6697 5.85621 89.5547 5.75954 89.4747 5.63621C89.3947 5.51288 89.3547 5.37288 89.3547 5.21621C89.3547 4.96621 89.4481 4.76954 89.6347 4.62621C89.8247 4.48288 90.1164 4.41121 90.5097 4.41121H91.1297C91.1297 4.24121 91.0781 4.11121 90.9747 4.02121C90.8714 3.92788 90.7164 3.88121 90.5097 3.88121C90.3664 3.88121 90.2247 3.90454 90.0847 3.95121C89.9481 3.99454 89.8314 4.05454 89.7347 4.13121L89.4547 3.58621C89.6014 3.48288 89.7764 3.40288 89.9797 3.34621C90.1864 3.28954 90.3981 3.26121 90.6147 3.26121ZM90.5547 5.50621C90.6881 5.50621 90.8064 5.47621 90.9097 5.41621C91.0131 5.35288 91.0864 5.26121 91.1297 5.14121V4.86621H90.5947C90.2747 4.86621 90.1147 4.97121 90.1147 5.18121C90.1147 5.28121 90.1531 5.36121 90.2297 5.42121C90.3097 5.47788 90.4181 5.50621 90.5547 5.50621ZM93.2607 3.65621C93.354 3.52621 93.479 3.42788 93.6357 3.36121C93.7957 3.29454 93.979 3.26121 94.1857 3.26121V3.98121C94.099 3.97454 94.0407 3.97121 94.0107 3.97121C93.7873 3.97121 93.6123 4.03454 93.4857 4.16121C93.359 4.28454 93.2957 4.47121 93.2957 4.72121V5.99121H92.5157V3.30121H93.2607V3.65621ZM52.8099 8.49121C53.1199 8.49121 53.3882 8.54288 53.6149 8.64621C53.8449 8.74954 54.0215 8.89621 54.1449 9.08621C54.2682 9.27621 54.3299 9.50121 54.3299 9.76121C54.3299 10.0179 54.2682 10.2429 54.1449 10.4362C54.0215 10.6262 53.8449 10.7729 53.6149 10.8762C53.3882 10.9762 53.1199 11.0262 52.8099 11.0262H52.1049V11.9912H51.2949V8.49121H52.8099ZM52.7649 10.3662C53.0082 10.3662 53.1932 10.3145 53.3199 10.2112C53.4465 10.1045 53.5099 9.95454 53.5099 9.76121C53.5099 9.56454 53.4465 9.41454 53.3199 9.31121C53.1932 9.20454 53.0082 9.15121 52.7649 9.15121H52.1049V10.3662H52.7649ZM57.3833 10.6562C57.3833 10.6662 57.3783 10.7362 57.3683 10.8662H55.3333C55.3699 11.0329 55.4566 11.1645 55.5933 11.2612C55.7299 11.3579 55.8999 11.4062 56.1033 11.4062C56.2433 11.4062 56.3666 11.3862 56.4733 11.3462C56.5833 11.3029 56.6849 11.2362 56.7783 11.1462L57.1933 11.5962C56.9399 11.8862 56.5699 12.0312 56.0833 12.0312C55.7799 12.0312 55.5116 11.9729 55.2783 11.8562C55.0449 11.7362 54.8649 11.5712 54.7383 11.3612C54.6116 11.1512 54.5483 10.9129 54.5483 10.6462C54.5483 10.3829 54.6099 10.1462 54.7333 9.93621C54.8599 9.72288 55.0316 9.55788 55.2483 9.44121C55.4683 9.32121 55.7133 9.26121 55.9833 9.26121C56.2466 9.26121 56.4849 9.31788 56.6983 9.43121C56.9116 9.54454 57.0783 9.70788 57.1983 9.92121C57.3216 10.1312 57.3833 10.3762 57.3833 10.6562ZM55.9883 9.85121C55.8116 9.85121 55.6633 9.90121 55.5433 10.0012C55.4233 10.1012 55.3499 10.2379 55.3233 10.4112H56.6483C56.6216 10.2412 56.5483 10.1062 56.4283 10.0062C56.3083 9.90288 56.1616 9.85121 55.9883 9.85121ZM61.2476 9.26121C61.5842 9.26121 61.8509 9.36121 62.0476 9.56121C62.2476 9.75788 62.3476 10.0545 62.3476 10.4512V11.9912H61.5676V10.5712C61.5676 10.3579 61.5226 10.1995 61.4326 10.0962C61.3459 9.98954 61.2209 9.93621 61.0576 9.93621C60.8742 9.93621 60.7292 9.99621 60.6226 10.1162C60.5159 10.2329 60.4626 10.4079 60.4626 10.6412V11.9912H59.6826V10.5712C59.6826 10.1479 59.5126 9.93621 59.1726 9.93621C58.9926 9.93621 58.8492 9.99621 58.7426 10.1162C58.6359 10.2329 58.5826 10.4079 58.5826 10.6412V11.9912H57.8026V9.30121H58.5476V9.61121C58.6476 9.49788 58.7692 9.41121 58.9126 9.35121C59.0592 9.29121 59.2192 9.26121 59.3926 9.26121C59.5826 9.26121 59.7542 9.29954 59.9076 9.37621C60.0609 9.44954 60.1842 9.55788 60.2776 9.70121C60.3876 9.56121 60.5259 9.45288 60.6926 9.37621C60.8626 9.29954 61.0476 9.26121 61.2476 9.26121ZM64.5367 9.26121C64.7867 9.26121 65.0134 9.31954 65.2167 9.43621C65.4234 9.54954 65.5851 9.71121 65.7017 9.92121C65.8184 10.1279 65.8767 10.3695 65.8767 10.6462C65.8767 10.9229 65.8184 11.1662 65.7017 11.3762C65.5851 11.5829 65.4234 11.7445 65.2167 11.8612C65.0134 11.9745 64.7867 12.0312 64.5367 12.0312C64.1667 12.0312 63.8851 11.9145 63.6917 11.6812V11.9912H62.9467V8.28121H63.7267V9.58621C63.9234 9.36954 64.1934 9.26121 64.5367 9.26121ZM64.4017 11.3912C64.6017 11.3912 64.7651 11.3245 64.8917 11.1912C65.0217 11.0545 65.0867 10.8729 65.0867 10.6462C65.0867 10.4195 65.0217 10.2395 64.8917 10.1062C64.7651 9.96954 64.6017 9.90121 64.4017 9.90121C64.2017 9.90121 64.0367 9.96954 63.9067 10.1062C63.7801 10.2395 63.7167 10.4195 63.7167 10.6462C63.7167 10.8729 63.7801 11.0545 63.9067 11.1912C64.0367 11.3245 64.2017 11.3912 64.4017 11.3912ZM67.3399 9.26121C67.7566 9.26121 68.0766 9.36121 68.2999 9.56121C68.5233 9.75788 68.6349 10.0562 68.6349 10.4562V11.9912H67.9049V11.6562C67.7583 11.9062 67.4849 12.0312 67.0849 12.0312C66.8783 12.0312 66.6983 11.9962 66.5449 11.9262C66.3949 11.8562 66.2799 11.7595 66.1999 11.6362C66.1199 11.5129 66.0799 11.3729 66.0799 11.2162C66.0799 10.9662 66.1733 10.7695 66.3599 10.6262C66.5499 10.4829 66.8416 10.4112 67.2349 10.4112H67.8549C67.8549 10.2412 67.8033 10.1112 67.6999 10.0212C67.5966 9.92788 67.4416 9.88121 67.2349 9.88121C67.0916 9.88121 66.9499 9.90454 66.8099 9.95121C66.6733 9.99454 66.5566 10.0545 66.4599 10.1312L66.1799 9.58621C66.3266 9.48288 66.5016 9.40288 66.7049 9.34621C66.9116 9.28954 67.1233 9.26121 67.3399 9.26121ZM67.2799 11.5062C67.4133 11.5062 67.5316 11.4762 67.6349 11.4162C67.7383 11.3529 67.8116 11.2612 67.8549 11.1412V10.8662H67.3199C66.9999 10.8662 66.8399 10.9712 66.8399 11.1812C66.8399 11.2812 66.8783 11.3612 66.9549 11.4212C67.0349 11.4779 67.1433 11.5062 67.2799 11.5062ZM71.862 9.30121L70.647 12.1562C70.5237 12.4662 70.3704 12.6845 70.187 12.8112C70.007 12.9379 69.7887 13.0012 69.532 13.0012C69.392 13.0012 69.2537 12.9795 69.117 12.9362C68.9804 12.8929 68.8687 12.8329 68.782 12.7562L69.067 12.2012C69.127 12.2545 69.1954 12.2962 69.272 12.3262C69.352 12.3562 69.4304 12.3712 69.507 12.3712C69.6137 12.3712 69.7004 12.3445 69.767 12.2912C69.8337 12.2412 69.8937 12.1562 69.947 12.0362L69.957 12.0112L68.792 9.30121H69.597L70.352 11.1262L71.112 9.30121H71.862ZM73.0774 9.26121C73.4941 9.26121 73.8141 9.36121 74.0374 9.56121C74.2608 9.75788 74.3724 10.0562 74.3724 10.4562V11.9912H73.6424V11.6562C73.4958 11.9062 73.2224 12.0312 72.8224 12.0312C72.6158 12.0312 72.4358 11.9962 72.2824 11.9262C72.1324 11.8562 72.0174 11.7595 71.9374 11.6362C71.8574 11.5129 71.8174 11.3729 71.8174 11.2162C71.8174 10.9662 71.9108 10.7695 72.0974 10.6262C72.2874 10.4829 72.5791 10.4112 72.9724 10.4112H73.5924C73.5924 10.2412 73.5408 10.1112 73.4374 10.0212C73.3341 9.92788 73.1791 9.88121 72.9724 9.88121C72.8291 9.88121 72.6874 9.90454 72.5474 9.95121C72.4108 9.99454 72.2941 10.0545 72.1974 10.1312L71.9174 9.58621C72.0641 9.48288 72.2391 9.40288 72.4424 9.34621C72.6491 9.28954 72.8608 9.26121 73.0774 9.26121ZM73.0174 11.5062C73.1508 11.5062 73.2691 11.4762 73.3724 11.4162C73.4758 11.3529 73.5491 11.2612 73.5924 11.1412V10.8662H73.0574C72.7374 10.8662 72.5774 10.9712 72.5774 11.1812C72.5774 11.2812 72.6158 11.3612 72.6924 11.4212C72.7724 11.4779 72.8808 11.5062 73.0174 11.5062ZM75.7234 9.65621C75.8167 9.52621 75.9417 9.42788 76.0984 9.36121C76.2584 9.29454 76.4417 9.26121 76.6484 9.26121V9.98121C76.5617 9.97454 76.5034 9.97121 76.4734 9.97121C76.25 9.97121 76.075 10.0345 75.9484 10.1612C75.8217 10.2845 75.7584 10.4712 75.7584 10.7212V11.9912H74.9784V9.30121H75.7234V9.65621ZM78.0825 9.26121C78.4992 9.26121 78.8192 9.36121 79.0425 9.56121C79.2658 9.75788 79.3775 10.0562 79.3775 10.4562V11.9912H78.6475V11.6562C78.5008 11.9062 78.2275 12.0312 77.8275 12.0312C77.6208 12.0312 77.4408 11.9962 77.2875 11.9262C77.1375 11.8562 77.0225 11.7595 76.9425 11.6362C76.8625 11.5129 76.8225 11.3729 76.8225 11.2162C76.8225 10.9662 76.9158 10.7695 77.1025 10.6262C77.2925 10.4829 77.5842 10.4112 77.9775 10.4112H78.5975C78.5975 10.2412 78.5458 10.1112 78.4425 10.0212C78.3392 9.92788 78.1842 9.88121 77.9775 9.88121C77.8342 9.88121 77.6925 9.90454 77.5525 9.95121C77.4158 9.99454 77.2992 10.0545 77.2025 10.1312L76.9225 9.58621C77.0692 9.48288 77.2442 9.40288 77.4475 9.34621C77.6542 9.28954 77.8658 9.26121 78.0825 9.26121ZM78.0225 11.5062C78.1558 11.5062 78.2742 11.4762 78.3775 11.4162C78.4808 11.3529 78.5542 11.2612 78.5975 11.1412V10.8662H78.0625C77.7425 10.8662 77.5825 10.9712 77.5825 11.1812C77.5825 11.2812 77.6208 11.3612 77.6975 11.4212C77.7775 11.4779 77.8858 11.5062 78.0225 11.5062ZM81.6184 9.26121C81.9518 9.26121 82.2201 9.36121 82.4234 9.56121C82.6301 9.76121 82.7334 10.0579 82.7334 10.4512V11.9912H81.9534V10.5712C81.9534 10.3579 81.9068 10.1995 81.8134 10.0962C81.7201 9.98954 81.5851 9.93621 81.4084 9.93621C81.2118 9.93621 81.0551 9.99788 80.9384 10.1212C80.8218 10.2412 80.7634 10.4212 80.7634 10.6612V11.9912H79.9834V9.30121H80.7284V9.61621C80.8318 9.50288 80.9601 9.41621 81.1134 9.35621C81.2668 9.29288 81.4351 9.26121 81.6184 9.26121ZM87.9215 8.49121V11.9912H87.2565L85.5115 9.86621V11.9912H84.7115V8.49121H85.3815L87.1215 10.6162V8.49121H87.9215ZM89.6796 9.26121C90.0962 9.26121 90.4162 9.36121 90.6396 9.56121C90.8629 9.75788 90.9746 10.0562 90.9746 10.4562V11.9912H90.2446V11.6562C90.0979 11.9062 89.8246 12.0312 89.4246 12.0312C89.2179 12.0312 89.0379 11.9962 88.8846 11.9262C88.7346 11.8562 88.6196 11.7595 88.5396 11.6362C88.4596 11.5129 88.4196 11.3729 88.4196 11.2162C88.4196 10.9662 88.5129 10.7695 88.6996 10.6262C88.8896 10.4829 89.1812 10.4112 89.5746 10.4112H90.1946C90.1946 10.2412 90.1429 10.1112 90.0396 10.0212C89.9362 9.92788 89.7812 9.88121 89.5746 9.88121C89.4312 9.88121 89.2896 9.90454 89.1496 9.95121C89.0129 9.99454 88.8962 10.0545 88.7996 10.1312L88.5196 9.58621C88.6662 9.48288 88.8412 9.40288 89.0446 9.34621C89.2512 9.28954 89.4629 9.26121 89.6796 9.26121ZM89.6196 11.5062C89.7529 11.5062 89.8712 11.4762 89.9746 11.4162C90.0779 11.3529 90.1512 11.2612 90.1946 11.1412V10.8662H89.6596C89.3396 10.8662 89.1796 10.9712 89.1796 11.1812C89.1796 11.2812 89.2179 11.3612 89.2946 11.4212C89.3746 11.4779 89.4829 11.5062 89.6196 11.5062ZM92.4855 12.0312C92.2622 12.0312 92.0438 12.0045 91.8305 11.9512C91.6172 11.8945 91.4472 11.8245 91.3205 11.7412L91.5805 11.1812C91.7005 11.2579 91.8455 11.3212 92.0155 11.3712C92.1855 11.4179 92.3522 11.4412 92.5155 11.4412C92.8455 11.4412 93.0105 11.3595 93.0105 11.1962C93.0105 11.1195 92.9655 11.0645 92.8755 11.0312C92.7855 10.9979 92.6472 10.9695 92.4605 10.9462C92.2405 10.9129 92.0588 10.8745 91.9155 10.8312C91.7722 10.7879 91.6472 10.7112 91.5405 10.6012C91.4372 10.4912 91.3855 10.3345 91.3855 10.1312C91.3855 9.96121 91.4338 9.81121 91.5305 9.68121C91.6305 9.54788 91.7738 9.44454 91.9605 9.37121C92.1505 9.29788 92.3738 9.26121 92.6305 9.26121C92.8205 9.26121 93.0088 9.28288 93.1955 9.32621C93.3855 9.36621 93.5422 9.42288 93.6655 9.49621L93.4055 10.0512C93.1688 9.91788 92.9105 9.85121 92.6305 9.85121C92.4638 9.85121 92.3388 9.87454 92.2555 9.92121C92.1722 9.96788 92.1305 10.0279 92.1305 10.1012C92.1305 10.1845 92.1755 10.2429 92.2655 10.2762C92.3555 10.3095 92.4988 10.3412 92.6955 10.3712C92.9155 10.4079 93.0955 10.4479 93.2355 10.4912C93.3755 10.5312 93.4972 10.6062 93.6005 10.7162C93.7038 10.8262 93.7555 10.9795 93.7555 11.1762C93.7555 11.3429 93.7055 11.4912 93.6055 11.6212C93.5055 11.7512 93.3588 11.8529 93.1655 11.9262C92.9755 11.9962 92.7488 12.0312 92.4855 12.0312ZM94.1368 9.30121H94.9168V11.9912H94.1368V9.30121ZM94.5268 8.92621C94.3834 8.92621 94.2668 8.88454 94.1768 8.80121C94.0868 8.71788 94.0418 8.61454 94.0418 8.49121C94.0418 8.36788 94.0868 8.26454 94.1768 8.18121C94.2668 8.09788 94.3834 8.05621 94.5268 8.05621C94.6701 8.05621 94.7868 8.09621 94.8768 8.17621C94.9668 8.25621 95.0118 8.35621 95.0118 8.47621C95.0118 8.60621 94.9668 8.71454 94.8768 8.80121C94.7868 8.88454 94.6701 8.92621 94.5268 8.92621ZM96.8207 12.0312C96.5373 12.0312 96.2823 11.9729 96.0557 11.8562C95.8323 11.7362 95.6573 11.5712 95.5307 11.3612C95.404 11.1512 95.3407 10.9129 95.3407 10.6462C95.3407 10.3795 95.404 10.1412 95.5307 9.93121C95.6573 9.72121 95.8323 9.55788 96.0557 9.44121C96.2823 9.32121 96.5373 9.26121 96.8207 9.26121C97.104 9.26121 97.3573 9.32121 97.5807 9.44121C97.804 9.55788 97.979 9.72121 98.1057 9.93121C98.2323 10.1412 98.2957 10.3795 98.2957 10.6462C98.2957 10.9129 98.2323 11.1512 98.1057 11.3612C97.979 11.5712 97.804 11.7362 97.5807 11.8562C97.3573 11.9729 97.104 12.0312 96.8207 12.0312ZM96.8207 11.3912C97.0207 11.3912 97.184 11.3245 97.3107 11.1912C97.4407 11.0545 97.5057 10.8729 97.5057 10.6462C97.5057 10.4195 97.4407 10.2395 97.3107 10.1062C97.184 9.96954 97.0207 9.90121 96.8207 9.90121C96.6207 9.90121 96.4557 9.96954 96.3257 10.1062C96.1957 10.2395 96.1307 10.4195 96.1307 10.6462C96.1307 10.8729 96.1957 11.0545 96.3257 11.1912C96.4557 11.3245 96.6207 11.3912 96.8207 11.3912ZM100.352 9.26121C100.685 9.26121 100.954 9.36121 101.157 9.56121C101.364 9.76121 101.467 10.0579 101.467 10.4512V11.9912H100.687V10.5712C100.687 10.3579 100.64 10.1995 100.547 10.0962C100.454 9.98954 100.319 9.93621 100.142 9.93621C99.9454 9.93621 99.7887 9.99788 99.672 10.1212C99.5554 10.2412 99.497 10.4212 99.497 10.6612V11.9912H98.717V9.30121H99.462V9.61621C99.5654 9.50288 99.6937 9.41621 99.847 9.35621C100 9.29288 100.169 9.26121 100.352 9.26121ZM103.159 9.26121C103.576 9.26121 103.896 9.36121 104.119 9.56121C104.342 9.75788 104.454 10.0562 104.454 10.4562V11.9912H103.724V11.6562C103.577 11.9062 103.304 12.0312 102.904 12.0312C102.697 12.0312 102.517 11.9962 102.364 11.9262C102.214 11.8562 102.099 11.7595 102.019 11.6362C101.939 11.5129 101.899 11.3729 101.899 11.2162C101.899 10.9662 101.992 10.7695 102.179 10.6262C102.369 10.4829 102.661 10.4112 103.054 10.4112H103.674C103.674 10.2412 103.622 10.1112 103.519 10.0212C103.416 9.92788 103.261 9.88121 103.054 9.88121C102.911 9.88121 102.769 9.90454 102.629 9.95121C102.492 9.99454 102.376 10.0545 102.279 10.1312L101.999 9.58621C102.146 9.48288 102.321 9.40288 102.524 9.34621C102.731 9.28954 102.942 9.26121 103.159 9.26121ZM103.099 11.5062C103.232 11.5062 103.351 11.4762 103.454 11.4162C103.557 11.3529 103.631 11.2612 103.674 11.1412V10.8662H103.139C102.819 10.8662 102.659 10.9712 102.659 11.1812C102.659 11.2812 102.697 11.3612 102.774 11.4212C102.854 11.4779 102.962 11.5062 103.099 11.5062ZM105.06 8.28121H105.84V11.9912H105.06V8.28121Z" fill="black"/>
<defs>
<clipPath id="clip0_10947_2474">
<rect width="43.2945" height="15.5336" fill="white"/>
</clipPath>
</defs>
</svg>
