<svg width="165" height="210" viewBox="0 0 165 210" fill="none" xmlns="http://www.w3.org/2000/svg">
<path d="M18.635 186.163C18.5084 184.886 17.9648 183.893 17.0043 183.186C16.0438 182.479 14.7402 182.125 13.0936 182.125C11.9748 182.125 11.0301 182.284 10.2596 182.6C9.48904 182.907 8.89795 183.334 8.4863 183.883C8.08521 184.432 7.88466 185.054 7.88466 185.751C7.86355 186.332 7.98493 186.838 8.24881 187.271C8.52325 187.704 8.89795 188.079 9.37293 188.395C9.84791 188.701 10.3968 188.97 11.0195 189.203C11.6423 189.424 12.3072 189.614 13.0144 189.773L15.9276 190.469C17.342 190.786 18.6403 191.208 19.8225 191.736C21.0047 192.264 22.0285 192.913 22.894 193.683C23.7595 194.454 24.4298 195.362 24.9048 196.406C25.3903 197.451 25.6383 198.649 25.6489 200C25.6383 201.985 25.1317 203.705 24.129 205.162C23.1368 206.608 21.7013 207.732 19.8225 208.534C17.9542 209.326 15.7007 209.722 13.0619 209.722C10.4443 209.722 8.16437 209.321 6.22223 208.518C4.29065 207.716 2.78127 206.529 1.69409 204.956C0.617474 203.373 0.0527756 201.415 0 199.082H6.63388C6.70777 200.169 7.01914 201.077 7.56801 201.805C8.12743 202.523 8.87156 203.067 9.80041 203.436C10.7398 203.795 11.8006 203.974 12.9828 203.974C14.1438 203.974 15.1518 203.806 16.0068 203.468C16.8723 203.13 17.5426 202.66 18.0176 202.059C18.4925 201.457 18.73 200.766 18.73 199.985C18.73 199.256 18.5136 198.644 18.0809 198.148C17.6587 197.652 17.0359 197.23 16.2126 196.881C15.3999 196.533 14.4024 196.216 13.2203 195.932L9.68958 195.045C6.95581 194.38 4.79729 193.34 3.21403 191.926C1.63076 190.511 0.844408 188.606 0.854963 186.21C0.844408 184.247 1.36689 182.532 2.4224 181.065C3.48846 179.597 4.95034 178.452 6.80804 177.629C8.66574 176.806 10.7768 176.394 13.1411 176.394C15.5477 176.394 17.6481 176.806 19.4425 177.629C21.2474 178.452 22.6512 179.597 23.654 181.065C24.6567 182.532 25.1739 184.231 25.2056 186.163H18.635Z" fill="white"/>
<path d="M37.0682 209.722C35.5166 209.722 34.1339 209.453 32.92 208.914C31.7062 208.365 30.7457 207.558 30.0385 206.492C29.3419 205.415 28.9935 204.075 28.9935 202.47C28.9935 201.119 29.2416 199.985 29.7377 199.066C30.2338 198.148 30.9093 197.409 31.7643 196.85C32.6192 196.29 33.5903 195.868 34.6775 195.583C35.7752 195.298 36.9257 195.098 38.129 194.982C39.5434 194.834 40.6833 194.697 41.5488 194.57C42.4144 194.433 43.0424 194.232 43.4329 193.968C43.8235 193.704 44.0187 193.314 44.0187 192.797V192.702C44.0187 191.699 43.7021 190.923 43.0688 190.374C42.446 189.825 41.5594 189.551 40.4089 189.551C39.1951 189.551 38.2293 189.82 37.5115 190.358C36.7938 190.886 36.3188 191.551 36.0866 192.353L29.8485 191.847C30.1652 190.369 30.7879 189.092 31.7168 188.015C32.6456 186.928 33.8436 186.094 35.3108 185.514C36.7885 184.923 38.4984 184.627 40.4406 184.627C41.7916 184.627 43.0846 184.785 44.3196 185.102C45.5651 185.419 46.6681 185.909 47.6286 186.574C48.5996 187.239 49.3649 188.094 49.9243 189.139C50.4837 190.174 50.7634 191.414 50.7634 192.86V209.263H44.3671V205.89H44.1771C43.7865 206.65 43.264 207.32 42.6096 207.901C41.9552 208.471 41.1689 208.92 40.2506 209.247C39.3323 209.563 38.2715 209.722 37.0682 209.722ZM38.9998 205.067C39.992 205.067 40.868 204.872 41.628 204.481C42.388 204.08 42.9843 203.542 43.4171 202.866C43.8499 202.191 44.0662 201.425 44.0662 200.57V197.99C43.8551 198.127 43.5649 198.254 43.1954 198.37C42.8366 198.475 42.4302 198.576 41.9763 198.671C41.5225 198.755 41.0686 198.834 40.6147 198.908C40.1608 198.971 39.7492 199.029 39.3798 199.082C38.5881 199.198 37.8968 199.383 37.3057 199.636C36.7146 199.89 36.2555 200.233 35.9282 200.665C35.601 201.088 35.4374 201.615 35.4374 202.249C35.4374 203.167 35.7699 203.869 36.4349 204.354C37.1104 204.829 37.9654 205.067 38.9998 205.067Z" fill="white"/>
<path d="M69.0739 184.944V190.01H54.0646V184.944H69.0739ZM57.5002 209.263V183.186C57.5002 181.424 57.8433 179.962 58.5294 178.801C59.226 177.64 60.176 176.769 61.3792 176.188C62.5825 175.608 63.9494 175.317 65.4799 175.317C66.5143 175.317 67.459 175.397 68.3139 175.555C69.1795 175.713 69.8233 175.856 70.2455 175.982L69.0422 181.049C68.7784 180.964 68.4512 180.885 68.0606 180.811C67.6806 180.737 67.2901 180.7 66.889 180.7C65.8968 180.7 65.2055 180.933 64.8149 181.397C64.4244 181.851 64.2291 182.49 64.2291 183.313V209.263H57.5002Z" fill="white"/>
<path d="M73.1944 209.263V184.944H79.7332V189.187H79.9866C80.4299 187.677 81.174 186.537 82.219 185.767C83.2639 184.986 84.4672 184.595 85.8288 184.595C86.1666 184.595 86.5307 184.616 86.9213 184.659C87.3118 184.701 87.6548 184.759 87.9504 184.833V190.818C87.6337 190.723 87.1957 190.638 86.6363 190.564C86.0769 190.49 85.5649 190.453 85.1005 190.453C84.1083 190.453 83.2217 190.67 82.4406 191.103C81.6701 191.525 81.0579 192.116 80.604 192.876C80.1607 193.636 79.9391 194.512 79.9391 195.504V209.263H73.1944Z" fill="white"/>
<path d="M101.388 209.738C98.8868 209.738 96.7335 209.231 94.9286 208.218C93.1343 207.194 91.7515 205.748 90.7805 203.879C89.8094 202.001 89.3239 199.779 89.3239 197.214C89.3239 194.712 89.8094 192.517 90.7805 190.628C91.7515 188.738 93.1184 187.266 94.8811 186.21C96.6544 185.155 98.7337 184.627 101.119 184.627C102.724 184.627 104.217 184.886 105.6 185.403C106.993 185.909 108.207 186.675 109.241 187.699C110.286 188.722 111.099 190.01 111.68 191.562C112.26 193.103 112.55 194.908 112.55 196.976V198.829H92.0154V194.649H106.201C106.201 193.678 105.99 192.818 105.568 192.068C105.146 191.319 104.56 190.733 103.811 190.311C103.072 189.878 102.212 189.662 101.23 189.662C100.206 189.662 99.2984 189.899 98.5068 190.374C97.7257 190.839 97.1135 191.467 96.6702 192.258C96.2269 193.039 96 193.91 95.9894 194.871V198.845C95.9894 200.048 96.2111 201.088 96.6544 201.964C97.1083 202.84 97.7468 203.515 98.5701 203.99C99.3934 204.465 100.37 204.703 101.499 204.703C102.249 204.703 102.935 204.597 103.557 204.386C104.18 204.175 104.713 203.858 105.157 203.436C105.6 203.014 105.938 202.497 106.17 201.885L112.408 202.296C112.091 203.795 111.442 205.104 110.46 206.223C109.489 207.331 108.233 208.197 106.692 208.819C105.162 209.431 103.394 209.738 101.388 209.738Z" fill="white"/>
<path d="M123.697 195.203V209.263H116.952V184.944H123.38V189.234H123.665C124.203 187.82 125.106 186.701 126.372 185.878C127.639 185.044 129.175 184.627 130.98 184.627C132.668 184.627 134.141 184.996 135.397 185.735C136.653 186.474 137.629 187.53 138.326 188.902C139.023 190.263 139.371 191.889 139.371 193.778V209.263H132.626V194.982C132.637 193.493 132.257 192.332 131.486 191.498C130.716 190.654 129.655 190.232 128.304 190.232C127.396 190.232 126.594 190.427 125.897 190.818C125.211 191.208 124.673 191.778 124.282 192.527C123.902 193.266 123.707 194.158 123.697 195.203Z" fill="white"/>
<path d="M144.56 209.263V205.241L156.466 190.501V190.327H144.972V184.944H164.588V189.329L153.41 203.705V203.879H165V209.263H144.56Z" fill="white"/>
<path fill-rule="evenodd" clip-rule="evenodd" d="M51.8227 47.1266C49.054 46.0885 46.0392 45.8965 43.1612 46.575C40.2831 47.2534 37.6716 48.7719 35.6581 50.9374C33.6447 53.103 32.3201 55.818 31.8527 58.7377C31.3852 61.6575 31.7959 64.6503 33.0326 67.3362C34.2692 70.0221 36.2762 72.28 38.7985 73.8231C41.3209 75.3663 44.2449 76.1251 47.1993 76.0033C50.1538 75.8814 53.0054 74.8844 55.3921 73.1388C57.7788 71.3933 59.593 68.9778 60.6043 66.1992L79.9521 73.2412C77.5451 79.8544 73.2272 85.6032 67.5468 89.7578C61.8663 93.9124 55.0793 96.2853 48.0477 96.5752C41.016 96.8652 34.0568 95.0592 28.0535 91.3865C22.0502 87.7137 17.2737 82.34 14.3303 75.9474C14.3303 75.9474 14.3303 75.9474 14.3303 75.9474C11.387 69.5548 10.4095 62.4318 11.5221 55.4827C12.6348 48.5335 15.7872 42.0717 20.5793 36.9176C25.3713 31.7636 31.5869 28.1497 38.4367 26.5349C45.2866 24.92 52.4618 25.377 59.0515 27.8479L51.8227 47.1266Z" fill="white"/>
<path fill-rule="evenodd" clip-rule="evenodd" d="M113.191 95.9422C115.96 96.9804 118.974 97.1724 121.852 96.4939C124.73 95.8154 127.342 94.297 129.355 92.1314C131.369 89.9659 132.693 87.2509 133.161 84.3311C133.628 81.4114 133.218 78.4185 131.981 75.7326C130.744 73.0467 128.737 70.7889 126.215 69.2457C123.693 67.7026 120.769 66.9437 117.814 67.0656C114.86 67.1874 112.008 68.1844 109.621 69.93C107.235 71.6756 105.421 74.091 104.409 76.8697L85.0614 69.8277C87.4684 63.2144 91.7863 57.4656 97.4668 53.3111C103.147 49.1565 109.934 46.7836 116.966 46.4936C123.997 46.2036 130.957 48.0097 136.96 51.6824C142.963 55.3551 147.74 60.7289 150.683 67.1215C153.627 73.514 154.604 80.6371 153.491 87.5862C152.379 94.5354 149.226 100.997 144.434 106.151C139.642 111.305 133.427 114.919 126.577 116.534C119.727 118.149 112.552 117.692 105.962 115.221L113.191 95.9422Z" fill="white"/>
<path fill-rule="evenodd" clip-rule="evenodd" d="M88.6176 49.5775C85.8294 48.5931 83.3965 46.8023 81.6279 44.4326C79.8593 42.0628 78.8348 39.221 78.6844 36.2679C78.534 33.3147 79.2645 30.3835 80.7832 27.8464C82.3019 25.3092 84.5402 23.2806 87.2141 22.018C89.8879 20.7554 92.8766 20.3158 95.8007 20.755C98.7249 21.1942 101.453 22.4924 103.637 24.4848C105.822 26.4772 107.366 29.074 108.072 31.9453C108.779 34.8167 108.616 37.8332 107.604 40.6118L126.952 47.6538C129.359 41.0406 129.747 33.8613 128.066 27.0273C126.385 20.1934 122.711 14.0131 117.511 9.27113C112.311 4.52912 105.819 1.4393 98.8591 0.39394C91.8995 -0.651421 84.7863 0.394837 78.4224 3.39987C72.0586 6.40491 66.7313 11.2332 63.1168 17.2717C59.5023 23.3102 57.7636 30.2866 58.1216 37.3151C58.4796 44.3437 60.918 51.1073 65.1273 56.7474C69.3366 62.3874 75.1269 66.6495 81.7631 68.9924L88.6176 49.5775Z" fill="white"/>
<path fill-rule="evenodd" clip-rule="evenodd" d="M76.4062 93.6362C79.1945 94.6206 81.6274 96.4113 83.3959 98.7811C85.1645 101.151 86.1891 103.993 86.3395 106.946C86.4899 109.899 85.7594 112.83 84.2407 115.367C82.722 117.904 80.4836 119.933 77.8098 121.196C75.136 122.458 72.1473 122.898 69.2231 122.459C66.299 122.019 63.5713 120.721 61.3864 118.729C59.2015 116.736 57.6579 114.14 56.9516 111.268C56.2453 108.397 56.4081 105.38 57.4195 102.602L38.0717 95.5598C35.6647 102.173 35.2771 109.352 36.9581 116.186C38.6391 123.02 42.3129 129.201 47.5131 133.943C52.7133 138.685 59.2052 141.774 66.1648 142.82C73.1244 143.865 80.2376 142.819 86.6014 139.814C92.9652 136.809 98.2926 131.98 101.907 125.942C105.522 119.903 107.26 112.927 106.902 105.898C106.544 98.87 104.106 92.1063 99.8966 86.4663C95.6873 80.8262 89.897 76.5642 83.2608 74.2212L76.4062 93.6362Z" fill="white"/>
</svg>
