<svg width="48" height="48" viewBox="0 0 48 48" fill="none" xmlns="http://www.w3.org/2000/svg">
<path d="M10 30C5.58 30 2 33.58 2 38C2 39.5 2.42 40.92 3.16 42.12C4.54 44.44 7.08 46 10 46C12.92 46 15.46 44.44 16.84 42.12C17.58 40.92 18 39.5 18 38C18 33.58 14.42 30 10 30ZM13.94 37.34L9.68 41.28C9.4 41.54 9.02 41.6801 8.66 41.6801C8.28 41.6801 7.9 41.54 7.6 41.24L5.62 39.26C5.04 38.68 5.04 37.72 5.62 37.14C6.2 36.56 7.16 36.56 7.74 37.14L8.7 38.1L11.9 35.14C12.5 34.58 13.46 34.62 14.02 35.22C14.58 35.82 14.54 36.78 13.94 37.34Z" fill="#00880F"/>
<path d="M35.5 14.0999C35.02 14.0199 34.52 14 34 14H14C13.44 14 12.9 14.04 12.38 14.12C12.66 13.56 13.06 13.04 13.54 12.56L20.04 6.04C22.78 3.32 27.22 3.32 29.96 6.04L33.46 9.57992C34.74 10.8399 35.42 12.4399 35.5 14.0999Z" fill="#00880F"/>
<path opacity="0.4" d="M44 24V34C44 40 40 44 34 44H15.26C15.88 43.48 16.42 42.84 16.84 42.12C17.58 40.92 18 39.5 18 38C18 33.58 14.42 30 10 30C7.6 30 5.46 31.06 4 32.72V24C4 18.56 7.28 14.76 12.38 14.12C12.9 14.04 13.44 14 14 14H34C34.52 14 35.02 14.02 35.5 14.1C40.66 14.7 44 18.52 44 24Z" fill="#00880F"/>
<path d="M44 25H38C35.8 25 34 26.8 34 29C34 31.2 35.8 33 38 33H44" fill="#00880F"/>
</svg>
